<svg class="typst-doc" viewBox="0 0 202.03596850393703 49.479498031496064" width="202.03596850393703pt" height="49.479498031496064pt" xmlns="http://www.w3.org/2000/svg" xmlns:xlink="http://www.w3.org/1999/xlink" xmlns:h5="http://www.w3.org/1999/xhtml">
    <g>
        <g class="typst-group" transform="matrix(1 0 0 1 5 5)">
            <g>
                <path class="typst-shape" fill="none" stroke="#000000" stroke-width="1" stroke-linecap="butt" stroke-linejoin="miter" stroke-miterlimit="4" transform="matrix(1 0 0 1 0 26.73823818897638)" d="M 0 0h 178.076 "/>
                <path class="typst-shape" fill="none" stroke="#000000" stroke-width="1" stroke-linecap="butt" stroke-linejoin="miter" stroke-miterlimit="4" transform="matrix(1 0 0 1 177.15867647244096 24.61225393700788)" d="M 0 0m 5.6692915 2.1259842 l -5.6692915 2.1259842 l 1.4173229 -2.1259842 l -1.4173229 -2.1259842 l 5.6692915 2.1259842 Z "/>
                <path class="typst-shape" fill="none" transform="matrix(1 0 0 1 176.467968503937 33.98749803149606)" d="M 0 0h 15.568 v 5.344 h -15.568 v -5.344 Z "/>
                <g class="typst-group">
                    <g>
                        <g class="typst-group" transform="matrix(1 0 0 1 176.46796842519686 33.98749795275591)">
                            <g>
                                <g class="typst-text" transform="matrix(1 0 0 -1 0 5.264)">
                                    <use xlink:href="#gBC62884C7A58304050CDD25C5C94BD6F" x="0" y="0" fill="#000000" fill-rule="nonzero"/>
                                    <use xlink:href="#gB336FEA42C1D01CF963815008902C33" x="5.592" y="0" fill="#000000" fill-rule="nonzero"/>
                                    <use xlink:href="#g893AFD739BFCE53AEC8B0619C528E2A6" x="9.248" y="0" fill="#000000" fill-rule="nonzero"/>
                                </g>
                            </g>
                        </g>
                    </g>
                </g>
                <path class="typst-shape" fill="#475569" fill-rule="nonzero" transform="matrix(1 0 0 1 26.07874015748031 24.470521653543308)" d="M 0 0m 2.2677166 0 c -1.2512898 0 -2.2677166 1.0164268 -2.2677166 2.2677166 c 0 1.2512896 1.0164268 2.2677166 2.2677166 2.2677166 c 1.2512896 0 2.2677166 -1.016427 2.2677166 -2.2677166 c 0 -1.2512898 -1.016427 -2.2677166 -2.2677166 -2.2677166 Z "/>
                <path class="typst-shape" fill="none" transform="matrix(1 0 0 1 26.34645669291339 33.83949803149606)" d="M 0 0h 4 v 5.64 h -4 v -5.64 Z "/>
                <g class="typst-group">
                    <g>
                        <g class="typst-group" transform="matrix(1 0 0 1 26.346456566929135 33.83949798425198)">
                            <g>
                                <g class="typst-text" transform="matrix(1 0 0 -1 0 5.464)">
                                    <use xlink:href="#g64F56B8B3B9B74ED3B4AF371EDC2B267" x="0" y="0" fill="#000000" fill-rule="nonzero"/>
                                </g>
                            </g>
                        </g>
                    </g>
                </g>
                <path class="typst-shape" fill="none" transform="matrix(1 0 0 1 10.815206692913387 12.755905511811022)" d="M 0 0h 35.0625 v 5.2875 h -35.0625 v -5.2875 Z "/>
                <g class="typst-group">
                    <g>
                        <g class="typst-group" transform="matrix(1 0 0 1 10.815206598425197 12.755905511811024)">
                            <g>
                                <g class="typst-text" transform="matrix(1 0 0 -1 0 5.1225)">
                                    <use xlink:href="#gF5454772A572E2FF44C1D190079187E0" x="0" y="0" fill="#000000" fill-rule="nonzero"/>
                                    <use xlink:href="#g1ACA5942DB5943B1DB11C90B675A3839" x="5.137500000000001" y="0" fill="#000000" fill-rule="nonzero"/>
                                    <use xlink:href="#g1142D2EA0F9642E919BCC086BE2BB904" x="9.120000000000001" y="0" fill="#000000" fill-rule="nonzero"/>
                                </g>
                                <g class="typst-text" transform="matrix(1 0 0 -1 13.027500000000002 5.1225)">
                                    <use xlink:href="#gB07773269A3D3B9B47701CFB09E25A8C" x="0" y="0" fill="#000000" fill-rule="nonzero"/>
                                </g>
                                <g class="typst-text" transform="matrix(1 0 0 -1 16.777500000000003 5.1225)">
                                    <use xlink:href="#gE505BC68D1E913D2A136FBC35ED23A61" x="0" y="0" fill="#000000" fill-rule="nonzero"/>
                                </g>
                                <g class="typst-text" transform="matrix(1 0 0 -1 20.527500000000003 5.1225)">
                                    <use xlink:href="#gE505BC68D1E913D2A136FBC35ED23A61" x="0" y="0" fill="#000000" fill-rule="nonzero"/>
                                </g>
                                <g class="typst-text" transform="matrix(1 0 0 -1 24.277500000000003 5.1225)">
                                    <use xlink:href="#gE505BC68D1E913D2A136FBC35ED23A61" x="0" y="0" fill="#000000" fill-rule="nonzero"/>
                                </g>
                                <g class="typst-text" transform="matrix(1 0 0 -1 28.027500000000003 5.1225)">
                                    <use xlink:href="#g273B25D1D24BF47460E04F0163BD7370" x="1.875" y="0" fill="#000000" fill-rule="nonzero"/>
                                    <use xlink:href="#g5CB2C5A71E009BC61F83CE2184556E29" x="4.245" y="0" fill="#000000" fill-rule="nonzero"/>
                                </g>
                            </g>
                        </g>
                    </g>
                </g>
                <path class="typst-shape" fill="#be123c" fill-rule="nonzero" transform="matrix(1 0 0 1 91.2755905511811 24.470521653543308)" d="M 0 0m 2.2677166 0 c -1.2512898 0 -2.2677166 1.0164268 -2.2677166 2.2677166 c 0 1.2512896 1.0164268 2.2677166 2.2677166 2.2677166 c 1.2512896 0 2.2677166 -1.016427 2.2677166 -2.2677166 c 0 -1.2512898 -1.016427 -2.2677166 -2.2677166 -2.2677166 Z "/>
                <path class="typst-shape" fill="none" transform="matrix(1 0 0 1 91.54330708661418 33.83949803149606)" d="M 0 0h 4 v 5.64 h -4 v -5.64 Z "/>
                <g class="typst-group">
                    <g>
                        <g class="typst-group" transform="matrix(1 0 0 1 91.54330696062992 33.83949798425198)">
                            <g>
                                <g class="typst-text" transform="matrix(1 0 0 -1 0 5.464)">
                                    <use xlink:href="#g67525A460411F91EEBC919FEC67DFE2C" x="0" y="0" fill="#000000" fill-rule="nonzero"/>
                                </g>
                            </g>
                        </g>
                    </g>
                </g>
                <path class="typst-shape" fill="none" stroke="#be123c" stroke-width="1.2" stroke-linecap="butt" stroke-linejoin="miter" stroke-miterlimit="4" transform="matrix(1 0 0 1 93.54330708661418 9.730364173228347)" d="M 0 0v 7.612459 "/>
                <path class="typst-shape" fill="none" stroke="#be123c" stroke-width="1.2" stroke-linecap="butt" stroke-linejoin="miter" stroke-miterlimit="4" transform="matrix(1 0 0 1 91.41732283464566 16.52550051968504)" d="M 0 0m 2.1259842 5.6692915 l -2.1259842 -5.6692915 l 2.1259842 1.4173229 l 2.1259842 -1.4173229 l -2.1259842 5.6692915 Z "/>
                <path class="typst-shape" fill="none" transform="matrix(1 0 0 1 78.08580708661417 0)" d="M 0 0h 30.915 v 5.2875 h -30.915 v -5.2875 Z "/>
                <g class="typst-group">
                    <g>
                        <g class="typst-group" transform="matrix(1 0 0 1 78.08580708661417 0.0000000000000004475859752819529)">
                            <g>
                                <g class="typst-text" transform="matrix(1 0 0 -1 0 5.1225)">
                                    <use xlink:href="#g86416633674150875F53D259D93A2CAA" x="0" y="0" fill="#be123c" fill-rule="nonzero"/>
                                    <use xlink:href="#g2637D119E25A4138B155F56C2939EE14" x="4.4025" y="0" fill="#be123c" fill-rule="nonzero"/>
                                    <use xlink:href="#g273B25D1D24BF47460E04F0163BD7370" x="8.385" y="0" fill="#be123c" fill-rule="nonzero"/>
                                </g>
                                <g class="typst-text" transform="matrix(1 0 0 -1 12.63 5.1225)">
                                    <use xlink:href="#gD36D0503AE5BDF567258D421F8C4D895" x="0" y="0" fill="#be123c" fill-rule="nonzero"/>
                                </g>
                                <g class="typst-text" transform="matrix(1 0 0 -1 16.380000000000003 5.1225)">
                                    <use xlink:href="#gE505BC68D1E913D2A136FBC35ED23A61" x="0" y="0" fill="#be123c" fill-rule="nonzero"/>
                                </g>
                                <g class="typst-text" transform="matrix(1 0 0 -1 20.130000000000003 5.1225)">
                                    <use xlink:href="#gE505BC68D1E913D2A136FBC35ED23A61" x="0" y="0" fill="#be123c" fill-rule="nonzero"/>
                                </g>
                                <g class="typst-text" transform="matrix(1 0 0 -1 23.880000000000003 5.1225)">
                                    <use xlink:href="#g273B25D1D24BF47460E04F0163BD7370" x="1.875" y="0" fill="#be123c" fill-rule="nonzero"/>
                                    <use xlink:href="#g5CB2C5A71E009BC61F83CE2184556E29" x="4.245" y="0" fill="#be123c" fill-rule="nonzero"/>
                                </g>
                            </g>
                        </g>
                    </g>
                </g>
                <path class="typst-shape" fill="#0369a1" fill-rule="nonzero" transform="matrix(1 0 0 1 159.30708661417322 24.470521653543308)" d="M 0 0m 2.2677166 0 c -1.2512898 0 -2.2677166 1.0164268 -2.2677166 2.2677166 c 0 1.2512896 1.0164268 2.2677166 2.2677166 2.2677166 c 1.2512896 0 2.2677166 -1.016427 2.2677166 -2.2677166 c 0 -1.2512898 -1.016427 -2.2677166 -2.2677166 -2.2677166 Z "/>
                <path class="typst-shape" fill="none" transform="matrix(1 0 0 1 159.52280314960632 33.83949803149606)" d="M 0 0h 4.104 v 5.64 h -4.104 v -5.64 Z "/>
                <g class="typst-group">
                    <g>
                        <g class="typst-group" transform="matrix(1 0 0 1 159.52280314960632 33.83949798425198)">
                            <g>
                                <g class="typst-text" transform="matrix(1 0 0 -1 0 5.464)">
                                    <use xlink:href="#g9E75E9510D7B35493187E5FDD1AFD832" x="0" y="0" fill="#0369a1" fill-rule="nonzero"/>
                                </g>
                            </g>
                        </g>
                    </g>
                </g>
                <path class="typst-shape" fill="none" transform="matrix(1 0 0 1 145.59980314960632 12.883405511811024)" d="M 0 0h 31.95 v 5.0325 h -31.95 v -5.0325 Z "/>
                <g class="typst-group">
                    <g>
                        <g class="typst-group" transform="matrix(1 0 0 1 145.59980300787402 12.883405464566929)">
                            <g>
                                <g class="typst-text" transform="matrix(1 0 0 -1 0 4.935)">
                                    <use xlink:href="#gCE823B7D8F5C746ED1A3FFB2BA056621" x="0" y="0" fill="#0369a1" fill-rule="nonzero"/>
                                    <use xlink:href="#g33FA6EE3B3EAD3DCC388156A58E8F22F" x="3.6374999999999997" y="0" fill="#0369a1" fill-rule="nonzero"/>
                                    <use xlink:href="#gEA9140BBD04DCCC666A689846F839C7" x="9.2925" y="0" fill="#0369a1" fill-rule="nonzero"/>
                                    <use xlink:href="#g4CCDAA1477EF99E89A27C088B162AFC4" x="13.0875" y="0" fill="#0369a1" fill-rule="nonzero"/>
                                    <use xlink:href="#gF2D63B54CF52CEBC688938953358F87D" x="18.945" y="0" fill="#0369a1" fill-rule="nonzero"/>
                                    <use xlink:href="#gA964564701727C3A7B217B4D68C9F445" x="22.155" y="0" fill="#0369a1" fill-rule="nonzero"/>
                                    <use xlink:href="#g33FA6EE3B3EAD3DCC388156A58E8F22F" x="26.137500000000003" y="0" fill="#0369a1" fill-rule="nonzero"/>
                                    <use xlink:href="#g1142D2EA0F9642E919BCC086BE2BB904" x="29.917500000000004" y="0" fill="#0369a1" fill-rule="nonzero"/>
                                </g>
                            </g>
                        </g>
                    </g>
                </g>
            </g>
        </g>
    </g>
    <defs id="glyph">
        <symbol id="gBC62884C7A58304050CDD25C5C94BD6F" overflow="visible">
            <path d="M 0 0m 4.4480004 4.096 v -2.6160002 c 0 -0.15199995 0 -0.24000001 -0.056000233 -0.24000001 c -0.032000065 0 -0.15199995 0.14400005 -0.38399982 0.44000006 l -2.7440004 3.4800003 l -1.08 0.015999794 c -0.048000008 -0.04799986 -0.048000008 -0.21600008 0 -0.26399994 c 0.34399998 -0.024000168 0.584 -0.3039999 0.632 -0.5120001 v -3.336 c 0 -0.712 -0.13600004 -0.76 -0.69600004 -0.816 c -0.048 -0.048000008 -0.048 -0.216 0 -0.264 c 0.344 0.008 0.70400006 0.016 0.896 0.016 c 0.18400002 0 0.55200005 -0.008 0.888 -0.016 c 0.048000097 0.048 0.048000097 0.216 0 0.264 c -0.55999994 0.05600001 -0.696 0.088000014 -0.696 0.816 v 2.448 c 0 0.27200007 0 0.3920002 0.06400001 0.3920002 c 0.047999978 0 0.13600004 -0.08800006 0.27199996 -0.26400018 l 2.7920003 -3.528 c 0.08799982 -0.120000005 0.19199991 -0.192 0.3199997 -0.192 c 0.11199999 0 0.18400002 0.09600001 0.18400002 0.24800003 v 3.9280002 c 0 0.7119999 0.13600016 0.7600002 0.6960001 0.816 c 0.04799986 0.04799986 0.04799986 0.21600008 0 0.26399994 c -0.32800007 -0.007999897 -0.704 -0.015999794 -0.8959999 -0.015999794 c -0.16800022 0 -0.53600025 0.007999897 -0.88800025 0.015999794 c -0.04799986 -0.04799986 -0.04799986 -0.21600008 0 -0.26399994 c 0.5600002 -0.055999756 0.69600034 -0.08799982 0.69600034 -0.816 Z "/>
        </symbol>
        <symbol id="gB336FEA42C1D01CF963815008902C33" overflow="visible">
            <path d="M 0 0m 2.344 0.384 c 0.048000097 -0.248 0.13599992 -0.46400002 0.536 -0.46400002 c 0.30400014 0 0.592 0.136 0.76 0.296 c -0.016000032 0.096 -0.04799986 0.168 -0.13599992 0.216 c -0.055999994 -0.048000008 -0.19199991 -0.12799999 -0.296 -0.12799999 c -0.23200011 0 -0.24000001 0.31200004 -0.24000001 0.68 v 1.1760001 c 0 1.1360002 -0.6240001 1.352 -1.2080001 1.352 c -0.656 0 -1.32 -0.43199992 -1.32 -0.888 c 0 -0.19199991 0.095999986 -0.28799987 0.28 -0.28799987 c 0.232 0 0.37600005 0.16799998 0.37600005 0.27199984 c 0 0.055999994 -0.008000016 0.11199999 -0.024000049 0.14400005 c -0.008000016 0.02399993 -0.016000032 0.07200003 -0.016000032 0.16000009 c 0 0.2479999 0.33600008 0.33599997 0.6400001 0.33599997 c 0.27199996 0 0.648 -0.13599992 0.648 -1.04 c 0 -0.055999994 -0.02399993 -0.08800006 -0.048000097 -0.096000195 l -0.68799996 -0.16799986 c -0.768 -0.19200003 -1.32 -0.61600006 -1.32 -1.1600001 c 0 -0.656 0.44800004 -0.864 1.008 -0.864 c 0.2800001 0 0.5200001 0.064 0.8720002 0.33600003 l 0.15999985 0.12799999 Z m 0 1.48 v -1.056 c 0 -0.10399997 -0.048000097 -0.16000003 -0.11199999 -0.208 c -0.20799994 -0.16800001 -0.48000002 -0.352 -0.704 -0.352 c -0.4000001 0 -0.5760001 0.32 -0.5760001 0.568 c 0 0.35999995 0.16799998 0.728 0.7600001 0.88000005 Z m -1.5600001 3.312 l -0.21600002 -0.09599972 c 0.11199999 -0.6800003 0.52000004 -1.0800004 1.0800002 -1.0800004 c 0.472 0 0.9840001 0.3920002 1.08 1.0800004 l -0.21600008 0.09599972 c -0.07999992 -0.46399975 -0.44799995 -0.7199998 -0.86399996 -0.7199998 c -0.43200004 0 -0.7760001 0.296 -0.8640001 0.7199998 Z "/>
        </symbol>
        <symbol id="g893AFD739BFCE53AEC8B0619C528E2A6" overflow="visible">
            <path d="M 0 0m 1.36 2.864 c -0.007999897 0.24000001 -0.02399993 0.5280001 -0.06400001 0.60800004 c -0.015999913 0.03999996 -0.031999946 0.06400013 -0.095999956 0.06400013 c -0.22399998 -0.08800006 -0.43200004 -0.16000009 -0.984 -0.23200011 c -0.016000003 -0.048000097 0 -0.17599988 0.016000003 -0.22399998 c 0.43200004 -0.03999996 0.52000004 -0.07999992 0.52000004 -0.54400015 v -1.56 c 0 -0.656 -0.10400003 -0.6960001 -0.544 -0.72800004 c -0.047999993 -0.048000008 -0.047999993 -0.216 0 -0.264 c 0.24000001 0.008 0.544 0.016 0.864 0.016 c 0.32000005 0 0.5680001 -0.008 0.8080001 -0.016 c 0.047999978 0.048 0.047999978 0.216 0 0.264 c -0.408 0.040000007 -0.49600005 0.07200001 -0.49600005 0.72800004 v 1.312 c 0 0.16799998 0.07200003 0.26399994 0.13600004 0.33599997 c 0.31999993 0.31200004 0.61600006 0.47200012 0.86399996 0.47200012 c 0.30400014 0 0.5280001 -0.19200015 0.5280001 -0.72800016 v -1.392 c 0 -0.656 -0.06400013 -0.6960001 -0.49600005 -0.72800004 c -0.03999996 -0.048000008 -0.03999996 -0.216 0 -0.264 c 0.20000005 0.008 0.49600005 0.016 0.816 0.016 c 0.32000017 0 0.5840001 -0.008 0.78400016 -0.016 c 0.03999996 0.048 0.03999996 0.216 0 0.264 c -0.4000001 0.03199999 -0.47200012 0.07200001 -0.47200012 0.72800004 v 1.2720001 c 0 0.11199999 0 0.22399998 -0.007999897 0.31999993 c 0.38399982 0.42400002 0.74399996 0.5280001 1.0559998 0.5280001 c 0.30400038 0 0.48000002 -0.17600012 0.48000002 -0.71200013 v -1.408 c 0 -0.656 -0.07999992 -0.6960001 -0.4959998 -0.72800004 c -0.03999996 -0.048000008 -0.03999996 -0.216 0 -0.264 c 0.19999981 0.008 0.4959998 0.016 0.816 0.016 c 0.32000017 0 0.5999999 -0.008 0.8239999 -0.016 c 0.04000044 0.048 0.04000044 0.216 0 0.264 c -0.43999958 0.03199999 -0.5119996 0.07200001 -0.5119996 0.72800004 v 1.2639999 c 0 0.71200013 -0.12000036 1.2720001 -0.82400036 1.2720001 c -0.408 0 -0.90400004 -0.15199995 -1.3199999 -0.592 c -0.02399993 -0.02399993 -0.07200003 -0.06399989 -0.08800006 0.008000135 c -0.07200003 0.32799983 -0.38400006 0.5839999 -0.79999995 0.5839999 c -0.464 0 -0.8800001 -0.27199984 -1.2160001 -0.648 c -0.04000008 -0.03999996 -0.08800006 -0.095999956 -0.096000075 0 Z "/>
        </symbol>
        <symbol id="g64F56B8B3B9B74ED3B4AF371EDC2B267" overflow="visible">
            <path d="M 0 0m 1.9920001 -0.17600001 c 1.128 0 1.688 0.91200006 1.688 2.7360003 c 0 1.224 -0.2559998 2.0400002 -0.76 2.4399998 c -0.27999997 0.21600008 -0.592 0.32800007 -0.9200001 0.32800007 c -1.128 0 -1.688 -0.9200001 -1.688 -2.768 c 0 -1.4720001 0.39200005 -2.7360003 1.6800001 -2.7360003 Z m 0.89600015 4.3680005 c 0.055999994 -0.2800002 0.07999992 -0.7920003 0.07999992 -1.5360003 c 0 -0.73600006 -0.032000065 -1.2800001 -0.08800006 -1.6320001 c -0.10400009 -0.64000005 -0.4000001 -0.96000004 -0.888 -0.96000004 c -0.18400002 0 -0.36800003 0.072000004 -0.536 0.208 c -0.21600008 0.18400002 -0.34399998 0.56 -0.4000001 1.1360002 c -0.02399993 0.19999993 -0.031999946 0.61600006 -0.031999946 1.248 c 0 0.6960001 0.024000049 1.184 0.06400001 1.448 c 0.07200003 0.44000006 0.21599996 0.72000027 0.44000006 0.84000015 c 0.176 0.096000195 0.32799995 0.14400005 0.464 0.14400005 c 0.52 0 0.8080001 -0.42400026 0.89600015 -0.8959999 Z "/>
        </symbol>
        <symbol id="gF5454772A572E2FF44C1D190079187E0" overflow="visible">
            <path d="M 0 0m 2.8274999 4.935 c -1.2524999 0 -2.55 -0.9825001 -2.55 -2.6325 c 0 -1.35 0.92999995 -2.3775 2.3625 -2.3775 c 0.885 0 1.5825 0.1875 2.0925002 0.6225 c -0.08249998 0.067499995 -0.12000036 0.1275 -0.12000036 0.20999998 v 0.86999995 c 0 0.26250005 0.12750006 0.33749998 0.34500027 0.36 c 0.045000076 0.045000076 0.045000076 0.2249999 0 0.26999998 c -0.1800003 -0.0074999332 -0.3675003 -0.0149998665 -0.6675 -0.0149998665 c -0.24749994 0 -0.60000014 0.0074999332 -0.93000007 0.0149998665 c -0.045000076 -0.045000076 -0.045000076 -0.2249999 0 -0.26999998 c 0.4124999 -0.029999971 0.615 -0.059999943 0.615 -0.36 v -1.1474999 c -0.25499988 -0.24 -0.75749993 -0.285 -1.1624999 -0.285 c -1.1850001 0 -1.815 1.2674999 -1.815 2.2575 c 0 1.3125 0.85499996 2.2125 1.7249999 2.2125 c 1.0875001 0 1.395 -0.62249994 1.5900002 -1.2674999 c 0.08249998 -0.0075001717 0.16499996 0.0074999332 0.24749994 0.044999838 c -0.0149998665 0.31500006 -0.052500248 0.615 -0.17250013 1.155 c -0.4499998 0.075000286 -0.72749996 0.3375001 -1.56 0.3375001 Z "/>
        </symbol>
        <symbol id="g1ACA5942DB5943B1DB11C90B675A3839" overflow="visible">
            <path d="M 0 0m 1.6274999 -0.074999996 c 0.29250002 0 0.6450001 0.14999999 1.0124999 0.45 c 0.037500143 0.030000001 0.10500002 0.044999987 0.11250019 -0.0075000226 c 0.0224998 -0.18749999 0.08249998 -0.44249997 0.08249998 -0.44249997 c 0.059999943 -0.0225 0.09749985 -0.015000001 0.14249992 0 c 0.16499996 0.13499999 0.4275 0.2475 0.885 0.29999998 c 0.045000076 0.044999987 0.045000076 0.1575 0 0.20249999 c -0.48000002 0.037500024 -0.54750013 0.17999998 -0.54750013 0.5475 v 1.44 c 0 0.1500001 0.015000105 0.43499994 0.022500038 0.615 c 0.31500006 0.07500005 0.45000005 0.3225 0.45000005 0.5174999 c 0 0.35249996 -0.1875 0.6600001 -0.4725001 0.6600001 c -0.21749997 0 -0.3449998 -0.11250019 -0.3449998 -0.29250002 c 0 -0.1500001 0.10500002 -0.31500006 0.3599999 -0.3225 c 0.14249992 -0.0074999332 0.2025001 -0.07500005 0.2025001 -0.15750003 c 0 -0.08249998 -0.1650002 -0.1875 -0.30750012 -0.2025001 v -0.0074999332 c -0.05250001 -0.0074999332 -0.12750006 -0.0074999332 -0.20249987 -0.0074999332 c -0.24000001 0 -0.51 0.0074999332 -0.7650001 0.0149998665 c -0.045000076 -0.044999838 -0.045000076 -0.20249987 0 -0.24749994 c 0.36750007 -0.022500038 0.4649999 -0.11249995 0.4649999 -0.60749984 v -1.4475 c 0 -0.14250004 -0.0149998665 -0.20250005 -0.119999886 -0.29250002 c -0.2774999 -0.24000001 -0.5625 -0.35999998 -0.75 -0.35999998 c -0.22500002 0 -0.6 0.10499999 -0.6 0.7724999 v 1.365 c 0 0.2249999 0.03000009 0.77250004 0.03000009 0.77250004 c 0 0.022500038 -0.022500038 0.044999838 -0.060000062 0.044999838 c -0.037500024 -0.0074999332 -0.14999998 -0.0149998665 -0.2625 -0.0149998665 c -0.24000001 0 -0.51 0.0074999332 -0.765 0.0149998665 c -0.045 -0.044999838 -0.045 -0.20249987 0 -0.24749994 c 0.36 -0.029999971 0.46499997 -0.11249995 0.46499997 -0.5999999 v -1.44 c 0 -0.51750004 0.22500002 -1.02 0.9675 -1.02 Z m 0.7875 4.5674996 c 0 0.12750006 -0.120000124 0.43499994 -0.5325 0.43499994 c -0.31499994 0 -0.5625 -0.2624998 -0.5625 -0.42749977 c 0 -0.09000015 0.060000062 -0.20249987 0.20249999 -0.20249987 c 0.067499995 0 0.16500008 0.07499981 0.16500008 0.15749979 c 0 0.059999943 -0.022500038 0.10500002 -0.03000009 0.12750006 c -0.0074999332 0.0149998665 -0.014999986 0.029999733 -0.014999986 0.059999943 c 0 0.037499905 0.037500024 0.08249998 0.18000007 0.08249998 c 0.15749991 0 0.21749997 -0.07499981 0.21749997 -0.24749994 c 0 -0.09000015 -0.037499905 -0.17999983 -0.09749997 -0.26999998 c -0.08249998 -0.12750006 -0.18000007 -0.29250002 -0.1875 -0.54750013 h 0.20999992 c 0.014999986 0.19500017 0.09000015 0.3225 0.21749997 0.4425001 c 0.120000124 0.119999886 0.23250008 0.23999977 0.23250008 0.38999987 Z "/>
        </symbol>
        <symbol id="g1142D2EA0F9642E919BCC086BE2BB904" overflow="visible">
            <path d="M 0 0m 1.3575 0.91499996 v 1.4925001 c 0 0.375 0.029999971 0.8549998 0.029999971 0.8549998 c 0 0.03000021 -0.037499905 0.05250001 -0.09749997 0.05250001 c -0.21000004 -0.08249998 -0.51 -0.14999986 -1.0274999 -0.21749997 c -0.015000001 -0.044999838 0 -0.16499996 0.0150000155 -0.2099998 c 0.4125 -0.037500143 0.48749998 -0.08250022 0.48749998 -0.51 v -1.4625001 c 0 -0.62249994 -0.08249998 -0.645 -0.53999996 -0.68249995 c -0.045 -0.045 -0.045 -0.2025 0 -0.2475 c 0.2475 0.0075 0.53999996 0.015 0.8399999 0.015 c 0.30000007 0 0.58500004 -0.0075 0.8325 -0.015 c 0.045000076 0.044999998 0.045000076 0.2025 0 0.2475 c -0.45749998 0.029999986 -0.53999996 0.059999987 -0.53999996 0.68249995 Z m -0.68249995 3.5774999 c 0 -0.1949997 0.17999995 -0.38999987 0.35999995 -0.38999987 c 0.21000004 0 0.39 0.20249987 0.39 0.36000013 c 0 0.17999983 -0.15750003 0.38999987 -0.36 0.38999987 c -0.17999995 0 -0.38999993 -0.17999983 -0.38999993 -0.36000013 Z "/>
        </symbol>
        <symbol id="gB07773269A3D3B9B47701CFB09E25A8C" overflow="visible">
            <path d="M 0 0m 2.0175 4.995 c -0.3075 -0.31500006 -0.75749993 -0.47249985 -1.3499999 -0.47249985 v -0.29250002 c 0.39000005 0 0.71250004 0.059999943 0.96 0.17999983 v -3.7949998 c 0 -0.13500002 -0.029999971 -0.22500002 -0.09749997 -0.26250002 c -0.067499995 -0.037499994 -0.255 -0.060000002 -0.555 -0.060000002 h -0.2625 v -0.2925 c 0.1875 0.015 0.5925 0.022499999 1.215 0.022499999 c 0.62249994 0 1.0274999 -0.0074999994 1.2149999 -0.022499999 v 0.2925 h -0.26250005 c -0.3074999 0 -0.4949999 0.022500008 -0.5549998 0.060000002 c -0.06000018 0.037499994 -0.097500086 0.1275 -0.097500086 0.26250002 v 4.1549997 c 0 0.17999983 -0.015000105 0.2249999 -0.21000004 0.2249999 Z "/>
        </symbol>
        <symbol id="gE505BC68D1E913D2A136FBC35ED23A61" overflow="visible">
            <path d="M 0 0m 1.8675 -0.16499999 c 1.0575 0 1.5824999 0.855 1.5824999 2.5649998 c 0 1.1475 -0.23999977 1.9125001 -0.71249986 2.2875001 c -0.26250005 0.20249987 -0.55500007 0.3074999 -0.86249995 0.3074999 c -1.0575 0 -1.5825 -0.8625002 -1.5825 -2.595 c 0 -1.3799999 0.36749998 -2.5649998 1.5749999 -2.5649998 Z m 0.84000003 4.095 c 0.05250001 -0.2624998 0.07500005 -0.7424998 0.07500005 -1.4399998 c 0 -0.69000006 -0.029999971 -1.2 -0.08249998 -1.53 c -0.097500086 -0.6 -0.375 -0.9 -0.8325001 -0.9 c -0.17250001 0 -0.34500003 0.067499995 -0.50249994 0.195 c -0.20249999 0.17249998 -0.3225 0.525 -0.37500006 1.0649999 c -0.022499979 0.1875 -0.029999971 0.5775 -0.029999971 1.1700001 c 0 0.6524999 0.022499979 1.1099999 0.060000002 1.3574998 c 0.067499995 0.4124999 0.20249999 0.6750002 0.41250002 0.7874999 c 0.16499996 0.09000015 0.3075 0.13500023 0.43499994 0.13500023 c 0.48750007 0 0.75750005 -0.39750004 0.84000003 -0.84000015 Z "/>
        </symbol>
        <symbol id="g273B25D1D24BF47460E04F0163BD7370" overflow="visible">
            <path d="M 0 0m 0.3225 3.2175 c -0.10499999 0 -0.13499999 -0.09000015 -0.13499999 -0.1500001 v -0.09749985 c 0 -0.037500143 0.007499993 -0.045000076 0.037499994 -0.045000076 h 0.44249997 v -2.2575 c 0 -0.53249997 0.23250002 -0.74249995 0.57750005 -0.74249995 c 0.3449999 0 0.7199999 0.16499999 1.0124999 0.49499997 c -0.0149998665 0.07499999 -0.059999943 0.119999975 -0.13499999 0.12750003 c -0.19499993 -0.15000004 -0.41999996 -0.21000001 -0.615 -0.21000001 c -0.20249999 0 -0.24749994 0.225 -0.24749994 0.69000006 v 1.8974999 h 0.78 c 0.07500005 0 0.18000007 0.029999971 0.18000007 0.097500086 v 0.14999986 c 0 0.029999971 -0.022500038 0.045000076 -0.06000018 0.045000076 h -0.89999986 v 0.29250002 c 0 0.48749995 0.029999971 0.78750014 0.029999971 0.78750014 c 0 0.0449996 -0.022500038 0.06749964 -0.059999943 0.06749964 c -0.03000009 0 -0.097500086 -0.029999733 -0.16500008 -0.06749964 c -0.08249998 -0.045000076 -0.15749997 -0.08250046 -0.25499994 -0.10500002 c -0.09000003 -0.03000021 -0.16500002 -0.052500248 -0.16500002 -0.10500002 c 0 -0.09000015 0.022499979 -0.03750038 0.022499979 -0.8700001 Z "/>
        </symbol>
        <symbol id="g5CB2C5A71E009BC61F83CE2184556E29" overflow="visible">
            <path d="M 0 0m 1.3199999 2.685 c -0.014999986 0.29999995 -0.022499919 0.4949999 -0.059999943 0.56999993 c -0.014999986 0.037500143 -0.029999971 0.059999943 -0.09000003 0.059999943 c -0.20999998 -0.08249998 -0.40499997 -0.14999986 -0.92249995 -0.21749997 c -0.014999986 -0.044999838 0 -0.16499996 0.015000001 -0.2099998 c 0.40499997 -0.037500143 0.4875 -0.07500005 0.4875 -0.51 v -1.4625001 c 0 -0.62249994 -0.09000003 -0.6525 -0.555 -0.68249995 c -0.045 -0.045 -0.045 -0.2025 0 -0.2475 c 0.2625 0.0075 0.555 0.015 0.85499996 0.015 c 0.30000007 0 0.645 -0.0075 0.9075 -0.015 c 0.045000076 0.044999998 0.045000076 0.2025 0 0.2475 c -0.525 0.03749998 -0.615 0.059999987 -0.615 0.68249995 v 1.0425 c 0 0.19499993 0.09000003 0.36750007 0.17999995 0.50250006 c 0.0825001 0.119999886 0.255 0.36749983 0.34500003 0.36749983 c 0.067499995 0 0.13500011 -0.0149998665 0.19500005 -0.09749985 c 0.05250001 -0.07500005 0.14249992 -0.17250013 0.26999998 -0.17250013 c 0.18000007 0 0.35249996 0.1875 0.35249996 0.375 c 0 0.14250016 -0.13499999 0.36000013 -0.45000005 0.36000013 c -0.35249996 0 -0.65999997 -0.33000016 -0.8325 -0.6225002 c -0.044999957 -0.08249998 -0.08249998 -0.0224998 -0.08249998 0.015000105 Z "/>
        </symbol>
        <symbol id="g67525A460411F91EEBC919FEC67DFE2C" overflow="visible">
            <path d="M 0 0m 2.424 2.8240001 c 0.5280001 0.20000005 1.0240002 0.704 1.0240002 1.3840001 c 0 0.34399986 -0.16799998 0.6240001 -0.49600005 0.84000015 c -0.2880001 0.18400002 -0.61599994 0.27999973 -0.9840001 0.27999973 c -0.36 0 -0.67200005 -0.09599972 -0.952 -0.27999973 c -0.31199998 -0.20800018 -0.472 -0.48000002 -0.472 -0.82400036 c 0 -0.2639997 0.176 -0.44799972 0.43200004 -0.44799972 c 0.25600004 0 0.43200004 0.18400002 0.43200004 0.43999982 c 0 0.26399994 -0.15200007 0.408 -0.4560001 0.42400026 c 0.20800006 0.27999973 0.536 0.4239998 0.9840001 0.4239998 c 0.48000002 0 0.72 -0.27999973 0.72 -0.84800005 c 0 -0.33599997 -0.06400013 -0.61599994 -0.18400002 -0.8479998 c -0.21600008 -0.38400006 -0.5120001 -0.4560001 -1.008 -0.4560001 c -0.096000075 -0.016000032 -0.14400005 -0.055999994 -0.14400005 -0.12800002 c 0 -0.120000124 0.055999994 -0.120000124 0.21599996 -0.120000124 h 0.3440001 c 0.5999999 0 0.90400004 -0.42400002 0.90400004 -1.28 c 0 -0.68 -0.24800014 -1.2720001 -0.85600007 -1.2720001 c -0.52 0 -0.90400004 0.17600001 -1.136 0.52800006 c 0.27999997 -0.008000016 0.48800004 0.19999999 0.48800004 0.47200006 c 0 0.27199996 -0.20000005 0.472 -0.47200006 0.472 c -0.312 0 -0.472 -0.16000009 -0.472 -0.48800004 c 0 -0.39200002 0.176 -0.70400006 0.528 -0.9520001 c 0.31199998 -0.21600002 0.68 -0.32000002 1.088 -0.32000002 c 0.4560001 0 0.84800005 0.15200001 1.1919999 0.448 c 0.3440001 0.296 0.5120001 0.66400003 0.5120001 1.112 c 0 0.7520001 -0.592 1.2720001 -1.2320001 1.44 Z "/>
        </symbol>
        <symbol id="g86416633674150875F53D259D93A2CAA" overflow="visible">
            <path d="M 0 0m 1.4175 0.91499996 v 1.2674999 c 0.6299999 0 0.77250004 -0.11249995 0.8774998 -0.28499997 l 0.8025 -1.305 c 0.21749997 -0.35249996 0.53999996 -0.66749996 0.99000025 -0.66749996 c 0.112499714 0 0.23999977 0.014999997 0.31499958 0.052499995 c 0.03000021 0.0525 0.022500038 0.12 -0.007499695 0.17999999 c -0.3375001 0 -0.5250001 0.255 -0.72 0.5775 l -0.94499993 1.575 c 0.3225 0.10500002 0.99749994 0.4949999 0.99749994 1.2825 c 0 0.375 -0.12750006 0.6825001 -0.39750004 0.93749976 c -0.3599999 0.3375001 -0.82500005 0.36000013 -1.2974999 0.36000013 c -0.35250008 0 -0.6675 -0.05249977 -0.9375 -0.05249977 c -0.26250005 0 -0.615 0.007499695 -0.96750003 0.0149998665 c -0.045 -0.045000076 -0.045 -0.20249987 0 -0.24749994 c 0.525 -0.022500038 0.6525 -0.059999943 0.6525 -0.6825001 v -3.0075 c 0 -0.62249994 -0.1275 -0.65999997 -0.6525 -0.68249995 c -0.045 -0.045 -0.045 -0.2025 0 -0.2475 c 0.3375 0.0075 0.69 0.015 0.97499996 0.015 c 0.28499997 0 0.63750005 -0.0075 0.9675 -0.015 c 0.045000076 0.044999998 0.045000076 0.2025 0 0.2475 c -0.525 0.022499993 -0.6524999 0.059999987 -0.6524999 0.68249995 Z m 0.62249994 3.7199998 c 0.45749998 0 0.99749994 -0.16499996 0.99749994 -1.0499997 c 0 -0.9375 -0.5325 -1.1475 -1.26 -1.1475 h -0.3599999 v 1.7174997 c 0 0.21750021 0.089999914 0.48000002 0.62249994 0.48000002 Z "/>
        </symbol>
        <symbol id="g2637D119E25A4138B155F56C2939EE14" overflow="visible">
            <path d="M 0 0m 1.6274999 -0.074999996 c 0.29250002 0 0.6450001 0.14999999 1.0124999 0.45 c 0.037500143 0.030000001 0.10500002 0.044999987 0.11250019 -0.0075000226 c 0.0224998 -0.18749999 0.08249998 -0.44249997 0.08249998 -0.44249997 c 0.059999943 -0.0225 0.09749985 -0.015000001 0.14249992 0 c 0.16499996 0.13499999 0.4275 0.2475 0.885 0.29999998 c 0.045000076 0.044999987 0.045000076 0.1575 0 0.20249999 c -0.48000002 0.037500024 -0.54750013 0.17999998 -0.54750013 0.5475 v 1.44 c 0 0.2249999 0.03000021 0.77250004 0.03000021 0.77250004 c 0 0.022500038 -0.022500038 0.044999838 -0.06000018 0.044999838 c -0.037499905 -0.0074999332 -0.14999986 -0.0149998665 -0.2624998 -0.0149998665 c -0.24000001 0 -0.51 0.0074999332 -0.7650001 0.0149998665 c -0.045000076 -0.044999838 -0.045000076 -0.20249987 0 -0.24749994 c 0.36750007 -0.022500038 0.4649999 -0.11249995 0.4649999 -0.60749984 v -1.4475 c 0 -0.14250004 -0.0149998665 -0.20250005 -0.119999886 -0.29250002 c -0.2774999 -0.24000001 -0.5625 -0.35999998 -0.75 -0.35999998 c -0.22500002 0 -0.6 0.10499999 -0.6 0.7724999 v 1.365 c 0 0.2249999 0.03000009 0.77250004 0.03000009 0.77250004 c 0 0.022500038 -0.022500038 0.044999838 -0.060000062 0.044999838 c -0.037500024 -0.0074999332 -0.14999998 -0.0149998665 -0.2625 -0.0149998665 c -0.24000001 0 -0.51 0.0074999332 -0.765 0.0149998665 c -0.045 -0.044999838 -0.045 -0.20249987 0 -0.24749994 c 0.36 -0.029999971 0.46499997 -0.11249995 0.46499997 -0.5999999 v -1.44 c 0 -0.51750004 0.22500002 -1.02 0.9675 -1.02 Z m 0.6 5.1074996 l -0.57000005 -0.8924999 c -0.059999943 -0.09749985 -0.08249998 -0.12750006 -0.08249998 -0.21000004 c 0 -0.05250001 0.05250001 -0.09749985 0.10500002 -0.09749985 c 0.05250001 0 0.11250007 0.029999971 0.22500002 0.14249992 l 0.86249995 0.8175001 l -0.022500038 0.08249998 c -0.1724999 0.16499996 -0.36749983 0.17249966 -0.4124999 0.17249966 c -0.037500143 0 -0.08249998 -0.007499695 -0.10500002 -0.0149998665 Z "/>
        </symbol>
        <symbol id="gD36D0503AE5BDF567258D421F8C4D895" overflow="visible">
            <path d="M 0 0m 2.6475 5.0775 c -0.067500114 0 -0.12750006 -0.037499905 -0.17250013 -0.10500002 l -2.2649999 -3.48 v -0.26999998 h 1.9575 v -0.615 c 0 -0.13499996 -0.029999971 -0.22499996 -0.08249998 -0.26249996 c -0.05250001 -0.037499994 -0.19500005 -0.05250001 -0.4425001 -0.05250001 h -0.1875 v -0.2925 c 0.21750009 0.015 0.5625 0.022499999 1.0274999 0.022499999 c 0.46500015 0 0.8100002 -0.0074999994 1.0275002 -0.022499999 v 0.2925 h -0.1875 c -0.24749994 0 -0.3900001 0.0150000155 -0.4425001 0.05250001 c -0.05250001 0.037499994 -0.08249998 0.1275 -0.08249998 0.26249996 v 0.615 h 0.73500013 v 0.29250002 h -0.73500013 v 3.435 c 0 0.075000286 -0.05250001 0.12750006 -0.14999986 0.12750006 Z m -0.43500018 -0.9299998 v -2.6325002 h -1.7099998 Z "/>
        </symbol>
        <symbol id="g9E75E9510D7B35493187E5FDD1AFD832" overflow="visible">
            <path d="M 0 0m 3.8000002 4.8320003 c 0.055999994 0.07200003 0.07999992 0.17600012 0.07999992 0.32000017 h -1.936 c -0.55200005 0 -0.8640001 0.031999588 -0.9200001 0.103999615 c -0.024000049 0.024000168 -0.047999978 0.0800004 -0.06400001 0.15200043 h -0.24800003 l -0.27199998 -1.6960003 h 0.26400003 c 0.07999998 0.4480002 0.144 0.68799996 0.19199997 0.7279999 c 0.023999989 0.024000168 0.27200007 0.03999996 0.7440001 0.03999996 h 1.5680001 l -0.84800005 -1.1999998 c -0.648 -0.9200001 -0.96800005 -1.9120002 -0.96800005 -2.992 c 0 -0.312 0.12800002 -0.46400005 0.39199996 -0.46400005 c 0.26400006 0 0.39200008 0.15200001 0.39200008 0.46400005 v 0.40800002 c 0 1.2160001 0.19199991 2.096 0.5680001 2.632 Z "/>
        </symbol>
        <symbol id="gCE823B7D8F5C746ED1A3FFB2BA056621" overflow="visible">
            <path d="M 0 0m 2.9624999 4.7325 c -0.43499994 0.059999943 -0.41999984 0.20249987 -1.1549999 0.20249987 c -0.75750005 0 -1.425 -0.50250006 -1.425 -1.2975001 c 0 -0.7874999 0.6525 -1.1474998 1.3125 -1.4024999 c 0.45000005 -0.1724999 1.0050001 -0.38249993 1.0050001 -1.1175 c 0 -0.60749996 -0.3375001 -0.92249995 -0.9375001 -0.92249995 c -0.6975 0 -1.1474999 0.3225 -1.3125 1.065 c -0.0975 0.029999971 -0.17249998 0.014999986 -0.24749999 -0.022500038 c 0.030000001 -0.5775 0.059999987 -0.7724999 0.14999999 -1.14 c 0.4725 0 0.6825 -0.17249998 1.35 -0.17249998 c 0.33749998 0 0.65999997 0.082499996 0.9225 0.2475 c 0.43499994 0.26999998 0.7049999 0.72749996 0.7049999 1.2075 c 0 0.79499996 -0.5999999 1.1474999 -1.2149999 1.38 c -0.45000005 0.16499996 -1.2 0.45000005 -1.2 1.0799999 c 0 0.41999984 0.38250005 0.8399999 0.82500005 0.8399999 c 0.72749996 0 0.96000004 -0.46500015 1.1099999 -0.9599998 c 0.08249998 -0.015000105 0.18000007 -0.0075001717 0.24749994 0.044999838 c -0.029999971 0.36000013 -0.059999943 0.5700002 -0.13499999 0.9675002 Z "/>
        </symbol>
        <symbol id="g33FA6EE3B3EAD3DCC388156A58E8F22F" overflow="visible">
            <path d="M 0 0m 0.3075 1.5375 c 0 -0.76500005 0.51 -1.6125001 1.5749999 -1.6125001 c 0.48000002 0 0.8475001 0.17249998 1.1025 0.42 c 0.3375001 0.33 0.48749995 0.8024999 0.48749995 1.26 c 0 0.78 -0.4275 1.6875 -1.5749999 1.6875 c -0.495 0 -0.8999999 -0.2025001 -1.1775 -0.5250001 c -0.26999998 -0.3225 -0.41249996 -0.75749993 -0.41249996 -1.2299999 Z m 1.4775 1.4925 c 0.64499986 0 1.0424999 -0.58500004 1.0424999 -1.665 c 0 -0.94500005 -0.48749995 -1.1775 -0.8399999 -1.1775 c -0.78 0 -1.035 0.94499993 -1.035 1.5224999 c 0 0.65250003 0.15750003 1.32 0.8325 1.32 Z m 0.22500002 1.9199998 c -0.08249998 0.022500038 -0.15750003 0.0149998665 -0.24000001 0 c -0.21749997 -0.3449998 -0.5625 -0.75 -0.8325 -1.05 c 0.044999957 -0.067499876 0.09749997 -0.11249995 0.16499996 -0.12750006 c 0.29250002 0.1650002 0.53999996 0.38249993 0.78 0.6225002 c 0.2249999 -0.23250008 0.48749995 -0.4425001 0.77250004 -0.6225002 c 0.067499876 0.015000105 0.13499999 0.07500005 0.1724999 0.12750006 c -0.26999998 0.29999995 -0.5999999 0.6975 -0.8174999 1.05 Z m 1.0125 0.39750004 l -0.39750004 -0.7125001 c -0.045000076 -0.07499981 -0.059999943 -0.09749985 -0.059999943 -0.16499996 c 0 -0.045000076 0.037499905 -0.08249998 0.07499981 -0.08249998 c 0.029999971 0 0.07500005 0.03000021 0.15750003 0.119999886 l 0.60000014 0.65250015 l -0.015000105 0.067500114 c -0.120000124 0.12750006 -0.2550001 0.13499975 -0.29250002 0.13499975 c -0.022500038 0 -0.05250001 -0.007499695 -0.067499876 -0.0149998665 Z "/>
        </symbol>
        <symbol id="gEA9140BBD04DCCC666A689846F839C7" overflow="visible">
            <path d="M 0 0m 2.5049999 0.375 c 0.037500143 0.030000001 0.10500002 0.044999987 0.11249995 -0.0075000226 c 0.022500038 -0.17999998 0.08250022 -0.44249997 0.08250022 -0.44249997 c 0.059999943 -0.0225 0.09749985 -0.015000001 0.14249992 0 c 0.16499996 0.13499999 0.4275 0.2475 0.885 0.29999998 c 0.044999838 0.044999987 0.044999838 0.1575 0 0.20249999 c -0.48000002 0.037500024 -0.54750013 0.17999998 -0.54750013 0.5475 v 3.3975 c 0 0.4874997 0.03000021 0.7874999 0.03000021 0.7874999 c 0 0.052500248 -0.03000021 0.07499981 -0.097500086 0.07499981 c -0.1875 -0.07499981 -0.75 -0.17999983 -1.05 -0.20249987 c -0.015000105 -0.059999943 0 -0.17999983 0.044999838 -0.2249999 c 0.022500038 0 0.045000076 0 0.067500114 0 c 0.32999992 -0.022500038 0.4124999 -0.022500038 0.4124999 -0.6149998 v -0.9600003 c 0 -0.05250001 -0.0149998665 -0.067499876 -0.067499876 -0.067499876 c -0.029999971 0 -0.3375001 0.12750006 -0.58500004 0.12750006 c -0.495 0 -0.8249999 -0.1650002 -1.125 -0.45000005 c -0.32250002 -0.3225 -0.51750004 -0.7650001 -0.51750004 -1.32 c 0 -0.92249995 0.465 -1.5975 1.275 -1.5975 c 0.29250002 0 0.57000005 0.14999999 0.9374999 0.45 Z m 0.08249998 0.555 c 0 -0.14250004 -0.0149998665 -0.20250005 -0.119999886 -0.29250002 c -0.2774999 -0.24000001 -0.51750004 -0.35999998 -0.70500004 -0.35999998 c -0.40499997 0 -0.8249999 0.44249997 -0.8249999 1.3799999 c 0 0.5400001 0.10500002 0.84000003 0.21749997 0.99750006 c 0.23249996 0.35249996 0.5475 0.375 0.6975 0.375 c 0.26999998 0 0.45749998 -0.097500086 0.6075001 -0.26999998 c 0.10500002 -0.120000124 0.12749982 -0.17250013 0.12749982 -0.40499997 Z "/>
        </symbol>
        <symbol id="g4CCDAA1477EF99E89A27C088B162AFC4" overflow="visible">
            <path d="M 0 0m 1.6274999 -0.074999996 c 0.29250002 0 0.6450001 0.14999999 1.0124999 0.45 c 0.037500143 0.030000001 0.10500002 0.044999987 0.11250019 -0.0075000226 c 0.0224998 -0.18749999 0.08249998 -0.44249997 0.08249998 -0.44249997 c 0.059999943 -0.0225 0.09749985 -0.015000001 0.14249992 0 c 0.16499996 0.13499999 0.4275 0.2475 0.885 0.29999998 c 0.045000076 0.044999987 0.045000076 0.1575 0 0.20249999 c -0.48000002 0.037500024 -0.54750013 0.17999998 -0.54750013 0.5475 v 1.44 c 0 0.1500001 0.015000105 0.43499994 0.022500038 0.615 c 0.31500006 0.07500005 0.45000005 0.3225 0.45000005 0.5174999 c 0 0.35249996 -0.1875 0.6600001 -0.4725001 0.6600001 c -0.21749997 0 -0.3449998 -0.11250019 -0.3449998 -0.29250002 c 0 -0.1500001 0.10500002 -0.31500006 0.3599999 -0.3225 c 0.14249992 -0.0074999332 0.2025001 -0.07500005 0.2025001 -0.15750003 c 0 -0.08249998 -0.1650002 -0.1875 -0.30750012 -0.2025001 v -0.0074999332 c -0.05250001 -0.0074999332 -0.12750006 -0.0074999332 -0.20249987 -0.0074999332 c -0.24000001 0 -0.51 0.0074999332 -0.7650001 0.0149998665 c -0.045000076 -0.044999838 -0.045000076 -0.20249987 0 -0.24749994 c 0.36750007 -0.022500038 0.4649999 -0.11249995 0.4649999 -0.60749984 v -1.4475 c 0 -0.14250004 -0.0149998665 -0.20250005 -0.119999886 -0.29250002 c -0.2774999 -0.24000001 -0.5625 -0.35999998 -0.75 -0.35999998 c -0.22500002 0 -0.6 0.10499999 -0.6 0.7724999 v 1.365 c 0 0.2249999 0.03000009 0.77250004 0.03000009 0.77250004 c 0 0.022500038 -0.022500038 0.044999838 -0.060000062 0.044999838 c -0.037500024 -0.0074999332 -0.14999998 -0.0149998665 -0.2625 -0.0149998665 c -0.24000001 0 -0.51 0.0074999332 -0.765 0.0149998665 c -0.045 -0.044999838 -0.045 -0.20249987 0 -0.24749994 c 0.36 -0.029999971 0.46499997 -0.11249995 0.46499997 -0.5999999 v -1.44 c 0 -0.51750004 0.22500002 -1.02 0.9675 -1.02 Z "/>
        </symbol>
        <symbol id="gF2D63B54CF52CEBC688938953358F87D" overflow="visible">
            <path d="M 0 0m 2.985 0.6825 c -0.029999971 0.067499995 -0.089999914 0.09749997 -0.15750003 0.10499996 c -0.25499988 -0.32999998 -0.57749987 -0.49499997 -0.89999986 -0.49499997 c -0.5475 0 -1.0050001 0.55499995 -1.0050001 1.4324999 c 0 0.82500005 0.36000007 1.3199999 0.85499996 1.3199999 c 0.4425001 0 0.50250006 -0.2624998 0.5325 -0.52499986 c 0.022500038 -0.2025001 0.12750006 -0.26999998 0.2850001 -0.26999998 c 0.15750003 0 0.36749983 0.09749985 0.36749983 0.32999992 c 0 0.4124999 -0.4275 0.7125001 -1.1474999 0.7125001 c -0.74249995 0 -1.5374999 -0.6675 -1.5374999 -1.7325001 c 0 -0.9675 0.53999996 -1.635 1.4849999 -1.635 c 0.44999993 0 0.84749997 0.14249998 1.2225 0.7575 Z "/>
        </symbol>
        <symbol id="gA964564701727C3A7B217B4D68C9F445" overflow="visible">
            <path d="M 0 0m 1.6274999 -0.074999996 c 0.29250002 0 0.6450001 0.14999999 1.0124999 0.45 c 0.037500143 0.030000001 0.10500002 0.044999987 0.11250019 -0.0075000226 c 0.0224998 -0.18749999 0.08249998 -0.44249997 0.08249998 -0.44249997 c 0.059999943 -0.0225 0.09749985 -0.015000001 0.14249992 0 c 0.16499996 0.13499999 0.4275 0.2475 0.885 0.29999998 c 0.045000076 0.044999987 0.045000076 0.1575 0 0.20249999 c -0.48000002 0.037500024 -0.54750013 0.17999998 -0.54750013 0.5475 v 1.44 c 0 0.2249999 0.03000021 0.77250004 0.03000021 0.77250004 c 0 0.022500038 -0.022500038 0.044999838 -0.06000018 0.044999838 c -0.037499905 -0.0074999332 -0.14999986 -0.0149998665 -0.2624998 -0.0149998665 c -0.24000001 0 -0.51 0.0074999332 -0.7650001 0.0149998665 c -0.045000076 -0.044999838 -0.045000076 -0.20249987 0 -0.24749994 c 0.36750007 -0.022500038 0.4649999 -0.11249995 0.4649999 -0.60749984 v -1.4475 c 0 -0.14250004 -0.0149998665 -0.20250005 -0.119999886 -0.29250002 c -0.2774999 -0.24000001 -0.5625 -0.35999998 -0.75 -0.35999998 c -0.22500002 0 -0.6 0.10499999 -0.6 0.7724999 v 1.365 c 0 0.2249999 0.03000009 0.77250004 0.03000009 0.77250004 c 0 0.022500038 -0.022500038 0.044999838 -0.060000062 0.044999838 c -0.037500024 -0.0074999332 -0.14999998 -0.0149998665 -0.2625 -0.0149998665 c -0.24000001 0 -0.51 0.0074999332 -0.765 0.0149998665 c -0.045 -0.044999838 -0.045 -0.20249987 0 -0.24749994 c 0.36 -0.029999971 0.46499997 -0.11249995 0.46499997 -0.5999999 v -1.44 c 0 -0.51750004 0.22500002 -1.02 0.9675 -1.02 Z "/>
        </symbol>
    </defs>
</svg>
