<svg class="typst-doc" viewBox="0 0 92.1942283464567 121.34664763779527" width="92.1942283464567pt" height="121.34664763779527pt" xmlns="http://www.w3.org/2000/svg" xmlns:xlink="http://www.w3.org/1999/xlink" xmlns:h5="http://www.w3.org/1999/xhtml">
    <g>
        <g class="typst-group" transform="matrix(1 0 0 1 5.669291338582677 5.669291338582677)">
            <g>
                <path class="typst-shape" fill="none" stroke="#f1f5f9" stroke-width="0.25" stroke-linecap="butt" stroke-linejoin="miter" stroke-miterlimit="4" transform="matrix(1 0 0 1 10.245078740157481 12.821007874015752)" d="M 0 0m 0 87.30708 c 0 0 0 -87.30708 0 -87.30708 "/>
                <path class="typst-shape" fill="none" stroke="#f1f5f9" stroke-width="0.25" stroke-linecap="butt" stroke-linejoin="miter" stroke-miterlimit="4" transform="matrix(1 0 0 1 18.18208661417323 12.821007874015752)" d="M 0 0m 0 87.30708 c 0 0 0 -87.30708 0 -87.30708 "/>
                <path class="typst-shape" fill="none" stroke="#f1f5f9" stroke-width="0.25" stroke-linecap="butt" stroke-linejoin="miter" stroke-miterlimit="4" transform="matrix(1 0 0 1 26.119094488188978 12.821007874015752)" d="M 0 0m 0 87.30708 c 0 0 0 -87.30708 0 -87.30708 "/>
                <path class="typst-shape" fill="none" stroke="#f1f5f9" stroke-width="0.25" stroke-linecap="butt" stroke-linejoin="miter" stroke-miterlimit="4" transform="matrix(1 0 0 1 34.056102362204726 12.821007874015752)" d="M 0 0m 0 87.30708 c 0 0 0 -87.30708 0 -87.30708 "/>
                <path class="typst-shape" fill="none" stroke="#f1f5f9" stroke-width="0.25" stroke-linecap="butt" stroke-linejoin="miter" stroke-miterlimit="4" transform="matrix(1 0 0 1 41.993110236220474 12.821007874015752)" d="M 0 0m 0 87.30708 c 0 0 0 -87.30708 0 -87.30708 "/>
                <path class="typst-shape" fill="none" stroke="#f1f5f9" stroke-width="0.25" stroke-linecap="butt" stroke-linejoin="miter" stroke-miterlimit="4" transform="matrix(1 0 0 1 49.93011811023622 12.821007874015752)" d="M 0 0m 0 87.30708 c 0 0 0 -87.30708 0 -87.30708 "/>
                <path class="typst-shape" fill="none" stroke="#f1f5f9" stroke-width="0.25" stroke-linecap="butt" stroke-linejoin="miter" stroke-miterlimit="4" transform="matrix(1 0 0 1 57.86712598425198 12.821007874015752)" d="M 0 0m 0 87.30708 c 0 0 0 -87.30708 0 -87.30708 "/>
                <path class="typst-shape" fill="none" stroke="#f1f5f9" stroke-width="0.25" stroke-linecap="butt" stroke-linejoin="miter" stroke-miterlimit="4" transform="matrix(1 0 0 1 65.80413385826772 12.821007874015752)" d="M 0 0m 0 87.30708 c 0 0 0 -87.30708 0 -87.30708 "/>
                <path class="typst-shape" fill="none" stroke="#f1f5f9" stroke-width="0.25" stroke-linecap="butt" stroke-linejoin="miter" stroke-miterlimit="4" transform="matrix(1 0 0 1 10.245078740157481 100.12809448818898)" d="M 0 0c 0 0 59.527557 0 59.527557 0 "/>
                <path class="typst-shape" fill="none" stroke="#f1f5f9" stroke-width="0.25" stroke-linecap="butt" stroke-linejoin="miter" stroke-miterlimit="4" transform="matrix(1 0 0 1 10.245078740157481 92.19108661417324)" d="M 0 0c 0 0 59.527557 0 59.527557 0 "/>
                <path class="typst-shape" fill="none" stroke="#f1f5f9" stroke-width="0.25" stroke-linecap="butt" stroke-linejoin="miter" stroke-miterlimit="4" transform="matrix(1 0 0 1 10.245078740157481 84.25407874015748)" d="M 0 0c 0 0 59.527557 0 59.527557 0 "/>
                <path class="typst-shape" fill="none" stroke="#f1f5f9" stroke-width="0.25" stroke-linecap="butt" stroke-linejoin="miter" stroke-miterlimit="4" transform="matrix(1 0 0 1 10.245078740157481 76.31707086614173)" d="M 0 0c 0 0 59.527557 0 59.527557 0 "/>
                <path class="typst-shape" fill="none" stroke="#f1f5f9" stroke-width="0.25" stroke-linecap="butt" stroke-linejoin="miter" stroke-miterlimit="4" transform="matrix(1 0 0 1 10.245078740157481 68.38006299212599)" d="M 0 0c 0 0 59.527557 0 59.527557 0 "/>
                <path class="typst-shape" fill="none" stroke="#f1f5f9" stroke-width="0.25" stroke-linecap="butt" stroke-linejoin="miter" stroke-miterlimit="4" transform="matrix(1 0 0 1 10.245078740157481 60.443055118110244)" d="M 0 0c 0 0 59.527557 0 59.527557 0 "/>
                <path class="typst-shape" fill="none" stroke="#f1f5f9" stroke-width="0.25" stroke-linecap="butt" stroke-linejoin="miter" stroke-miterlimit="4" transform="matrix(1 0 0 1 10.245078740157481 52.50604724409449)" d="M 0 0c 0 0 59.527557 0 59.527557 0 "/>
                <path class="typst-shape" fill="none" stroke="#f1f5f9" stroke-width="0.25" stroke-linecap="butt" stroke-linejoin="miter" stroke-miterlimit="4" transform="matrix(1 0 0 1 10.245078740157481 44.56903937007874)" d="M 0 0c 0 0 59.527557 0 59.527557 0 "/>
                <path class="typst-shape" fill="none" stroke="#f1f5f9" stroke-width="0.25" stroke-linecap="butt" stroke-linejoin="miter" stroke-miterlimit="4" transform="matrix(1 0 0 1 10.245078740157481 36.63203149606299)" d="M 0 0c 0 0 59.527557 0 59.527557 0 "/>
                <path class="typst-shape" fill="none" stroke="#f1f5f9" stroke-width="0.25" stroke-linecap="butt" stroke-linejoin="miter" stroke-miterlimit="4" transform="matrix(1 0 0 1 10.245078740157481 28.695023622047238)" d="M 0 0c 0 0 59.527557 0 59.527557 0 "/>
                <path class="typst-shape" fill="none" stroke="#f1f5f9" stroke-width="0.25" stroke-linecap="butt" stroke-linejoin="miter" stroke-miterlimit="4" transform="matrix(1 0 0 1 10.245078740157481 20.758015748031493)" d="M 0 0c 0 0 59.527557 0 59.527557 0 "/>
                <path class="typst-shape" fill="none" stroke="#f1f5f9" stroke-width="0.25" stroke-linecap="butt" stroke-linejoin="miter" stroke-miterlimit="4" transform="matrix(1 0 0 1 10.245078740157481 12.821007874015752)" d="M 0 0c 0 0 59.527557 0 59.527557 0 "/>
                <path class="typst-shape" fill="#eff6ff" fill-rule="nonzero" stroke="#2563eb" stroke-width="1.2" stroke-linecap="butt" stroke-linejoin="miter" stroke-miterlimit="4" transform="matrix(1 0 0 1 10.245078740157481 28.695023622047238)" d="M 0 0m 0 71.43307 c 0 0 39.68504 0 39.68504 0 c 0 0 -23.811024 -47.622044 -23.811024 -47.622044 c 0 0 -15.874016 -23.811024 -15.874016 -23.811024 c 0 0 0 0 0 0 c 0 0 0 71.43307 0 71.43307 c 0 0 0 0 0 0 Z "/>
                <path class="typst-shape" fill="#eff6ff" fill-rule="nonzero" stroke="#2563eb" stroke-width="1.1" stroke-linecap="butt" stroke-linejoin="miter" stroke-miterlimit="4" transform="matrix(1 0 0 1 6.276574803149607 22.742267716535427)" d="M 0 0c 0 0 55.559055 83.338585 55.559055 83.338585 "/>
                <path class="typst-shape" fill="none" transform="matrix(1 0 0 1 27.581716535433074 62.684661417322836)" d="M 0 0c 0 0 41.522 0 41.522 0 c 0 0 0 8.216 0 8.216 c 0 0 -41.522 0 -41.522 0 c 0 0 0 0 0 0 c 0 0 0 -8.216 0 -8.216 c 0 0 0 0 0 0 Z "/>
                <g class="typst-group">
                    <g>
                        <g class="typst-group" transform="matrix(1 0 0 1 27.581716519685042 62.684661307086614)">
                            <g>
                                <g class="typst-group">
                                    <g>
                                        <path class="typst-shape" fill="#ffffff" fill-rule="nonzero" d="M 0 0v 6.781 h 41.522 v -6.781 Z "/>
                                        <g class="typst-group">
                                            <g>
                                                <g class="typst-text" transform="matrix(1 0 0 -1 1 5.781)">
                                                    <use xlink:href="#gD46E0AA129BA45711853E1EB90354ADF" x="0" y="0" fill="#2563eb" fill-rule="nonzero"/>
                                                </g>
                                                <g class="typst-text" transform="matrix(1 0 0 -1 4.5 5.781)">
                                                    <use xlink:href="#g42E741CA9E7544940B559B38221B3356" x="0" y="0" fill="#2563eb" fill-rule="nonzero"/>
                                                </g>
                                                <g class="typst-text" transform="matrix(1 0 0 -1 10.059555555555555 5.781)">
                                                    <use xlink:href="#g669F99B469F718E391EE33422EB24CE" x="0" y="0" fill="#2563eb" fill-rule="nonzero"/>
                                                </g>
                                                <g class="typst-text" transform="matrix(1 0 0 -1 17.06111111111111 5.781)">
                                                    <use xlink:href="#gEDFE3F6BEDC82E33787A0CB3F2F3B0A1" x="0" y="0" fill="#2563eb" fill-rule="nonzero"/>
                                                </g>
                                                <g class="typst-text" transform="matrix(1 0 0 -1 20.56111111111111 5.781)">
                                                    <use xlink:href="#g839A20B3AF16396562D7F87A0CA8ACD9" x="0" y="0" fill="#2563eb" fill-rule="nonzero"/>
                                                </g>
                                                <g class="typst-text" transform="matrix(1 0 0 -1 26.131555555555554 5.781)">
                                                    <use xlink:href="#gDCE7AD7295AC3C5D15A3DE975C4E8346" x="0" y="0" fill="#2563eb" fill-rule="nonzero"/>
                                                </g>
                                                <g class="typst-text" transform="matrix(1 0 0 -1 33.522 5.781)">
                                                    <use xlink:href="#g8E79570005FE235A31D7FE8A6CFDC0A4" x="0" y="0" fill="#2563eb" fill-rule="nonzero"/>
                                                </g>
                                                <g class="typst-text" transform="matrix(1 0 0 -1 37.022 5.781)">
                                                    <use xlink:href="#g3D51F7FFFA33BFC8B25D374410CE277F" x="0" y="0" fill="#2563eb" fill-rule="nonzero"/>
                                                </g>
                                            </g>
                                        </g>
                                    </g>
                                </g>
                            </g>
                        </g>
                    </g>
                </g>
                <path class="typst-shape" fill="#eff6ff" fill-rule="nonzero" stroke="#059669" stroke-width="1.1" stroke-linecap="butt" stroke-linejoin="miter" stroke-miterlimit="4" transform="matrix(1 0 0 1 6.276574803149607 12.821007874015752)" d="M 0 0c 0 0 47.622047 95.244095 47.622047 95.244095 "/>
                <path class="typst-shape" fill="none" transform="matrix(1 0 0 1 0.7584881889763809 20.618519685039374)" d="M 0 0c 0 0 38.022 0 38.022 0 c 0 0 0 8.216 0 8.216 c 0 0 -38.022 0 -38.022 0 c 0 0 0 0 0 0 c 0 0 0 -8.216 0 -8.216 c 0 0 0 0 0 0 Z "/>
                <g class="typst-group">
                    <g>
                        <g class="typst-group" transform="matrix(1 0 0 1 0.7584881417322852 20.61851957480315)">
                            <g>
                                <g class="typst-group">
                                    <g>
                                        <path class="typst-shape" fill="#ffffff" fill-rule="nonzero" d="M 0 0v 6.781 h 38.022 v -6.781 Z "/>
                                        <g class="typst-group">
                                            <g>
                                                <g class="typst-text" transform="matrix(1 0 0 -1 1 5.781)">
                                                    <use xlink:href="#gEDFE3F6BEDC82E33787A0CB3F2F3B0A1" x="0" y="0" fill="#059669" fill-rule="nonzero"/>
                                                </g>
                                                <g class="typst-text" transform="matrix(1 0 0 -1 4.5 5.781)">
                                                    <use xlink:href="#g42E741CA9E7544940B559B38221B3356" x="0" y="0" fill="#059669" fill-rule="nonzero"/>
                                                </g>
                                                <g class="typst-text" transform="matrix(1 0 0 -1 10.059555555555555 5.781)">
                                                    <use xlink:href="#g669F99B469F718E391EE33422EB24CE" x="0" y="0" fill="#059669" fill-rule="nonzero"/>
                                                </g>
                                                <g class="typst-text" transform="matrix(1 0 0 -1 17.06111111111111 5.781)">
                                                    <use xlink:href="#g839A20B3AF16396562D7F87A0CA8ACD9" x="0" y="0" fill="#059669" fill-rule="nonzero"/>
                                                </g>
                                                <g class="typst-text" transform="matrix(1 0 0 -1 22.631555555555558 5.781)">
                                                    <use xlink:href="#gDCE7AD7295AC3C5D15A3DE975C4E8346" x="0" y="0" fill="#059669" fill-rule="nonzero"/>
                                                </g>
                                                <g class="typst-text" transform="matrix(1 0 0 -1 30.022 5.781)">
                                                    <use xlink:href="#g8E79570005FE235A31D7FE8A6CFDC0A4" x="0" y="0" fill="#059669" fill-rule="nonzero"/>
                                                </g>
                                                <g class="typst-text" transform="matrix(1 0 0 -1 33.522 5.781)">
                                                    <use xlink:href="#gCD54B4BF86288A90ED5E864C8DFBB20" x="0" y="0" fill="#059669" fill-rule="nonzero"/>
                                                </g>
                                            </g>
                                        </g>
                                    </g>
                                </g>
                            </g>
                        </g>
                    </g>
                </g>
                <path class="typst-shape" fill="#eff6ff" fill-rule="nonzero" stroke="#64748b" stroke-width="0.75" stroke-linecap="butt" stroke-linejoin="miter" stroke-miterlimit="4" stroke-dashoffset="0" stroke-dasharray="3 3" transform="matrix(1 0 0 1 26.119094488188978 52.50604724409449)" d="M 0 0c 0 0 0 47.622047 0 47.622047 "/>
                <path class="typst-shape" fill="#eff6ff" fill-rule="nonzero" stroke="#64748b" stroke-width="0.75" stroke-linecap="butt" stroke-linejoin="miter" stroke-miterlimit="4" stroke-dashoffset="0" stroke-dasharray="3 3" transform="matrix(1 0 0 1 10.245078740157481 52.50604724409449)" d="M 0 0m 15.874016 0 c 0 0 -15.874016 0 -15.874016 0 "/>
                <path class="typst-shape" fill="#eff6ff" fill-rule="nonzero" stroke="#000000" stroke-width="0.85" stroke-linecap="butt" stroke-linejoin="miter" stroke-miterlimit="4" transform="matrix(1 0 0 1 3.895472440944882 100.12809448818898)" d="M 0 0c 0 0 66.3394 0 66.3394 0 "/>
                <path class="typst-shape" fill="#000000" fill-rule="nonzero" stroke="#000000" stroke-width="0.85" stroke-linecap="butt" stroke-linejoin="miter" stroke-miterlimit="4" transform="matrix(1 0 0 1 69.2425522519685 98.00211023622047)" d="M 0 0m 5.6692915 2.1259842 c 0 0 -5.6692915 2.1259842 -5.6692915 2.1259842 c 0 0 1.4173229 -2.1259842 1.4173229 -2.1259842 c 0 0 -1.4173229 -2.1259842 -1.4173229 -2.1259842 c 0 0 0 0 0 0 c 0 0 5.6692915 2.1259842 5.6692915 2.1259842 c 0 0 0 0 0 0 Z "/>
                <path class="typst-shape" fill="none" transform="matrix(1 0 0 1 74.56364566929136 96.31109448818898)" d="M 0 0c 0 0 6.292 0 6.292 0 c 0 0 0 7.634 0 7.634 c 0 0 -6.292 0 -6.292 0 c 0 0 0 0 0 0 c 0 0 0 -7.634 0 -7.634 c 0 0 0 0 0 0 Z "/>
                <g class="typst-group">
                    <g>
                        <g class="typst-group" transform="matrix(1 0 0 1 74.56364563779529 96.31109442519686)">
                            <g>
                                <g class="typst-text" transform="matrix(1 0 0 -1 0 7.513000000000001)">
                                    <use xlink:href="#g373C58D24DC21C3C64134732861AB4A0" x="0" y="0" fill="#000000" fill-rule="nonzero"/>
                                </g>
                            </g>
                        </g>
                    </g>
                </g>
                <path class="typst-shape" fill="#eff6ff" fill-rule="nonzero" stroke="#000000" stroke-width="0.85" stroke-linecap="butt" stroke-linejoin="miter" stroke-miterlimit="4" transform="matrix(1 0 0 1 10.245078740157481 12.358770609326797)" d="M 0 0m 0 94.11893 c 0 0 0 -94.11893 0 -94.11893 "/>
                <path class="typst-shape" fill="#000000" fill-rule="nonzero" stroke="#000000" stroke-width="0.85" stroke-linecap="butt" stroke-linejoin="miter" stroke-miterlimit="4" transform="matrix(1 0 0 1 8.119094488188976 7.681802078740163)" d="M 0 0m 2.1259842 0 c 0 0 2.1259842 5.6692915 2.1259842 5.6692915 c 0 0 -2.1259842 -1.4173231 -2.1259842 -1.4173231 c 0 0 -2.1259842 1.4173231 -2.1259842 1.4173231 c 0 0 0 0 0 0 c 0 0 2.1259842 -5.6692915 2.1259842 -5.6692915 c 0 0 0 0 0 0 Z "/>
                <path class="typst-shape" fill="none" transform="matrix(1 0 0 1 7.396078740157481 0)" d="M 0 0c 0 0 5.698 0 5.698 0 c 0 0 0 9.768 0 9.768 c 0 0 -5.698 0 -5.698 0 c 0 0 0 0 0 0 c 0 0 0 -9.768 0 -9.768 c 0 0 0 0 0 0 Z "/>
                <g class="typst-group">
                    <g>
                        <g class="typst-group" transform="matrix(1 0 0 1 7.396078708661419 -0.00000009448819231850601)">
                            <g>
                                <g class="typst-text" transform="matrix(1 0 0 -1 0 7.513000000000001)">
                                    <use xlink:href="#gDE806B36A156762E7F60A533F4A2DAC8" x="0" y="0" fill="#000000" fill-rule="nonzero"/>
                                </g>
                            </g>
                        </g>
                    </g>
                </g>
                <path class="typst-shape" fill="none" transform="matrix(1 0 0 1 0.3517874015748041 101.91988582677166)" d="M 0 0c 0 0 8.448 0 8.448 0 c 0 0 0 7.755 0 7.755 c 0 0 -8.448 0 -8.448 0 c 0 0 0 0 0 0 c 0 0 0 -7.755 0 -7.755 c 0 0 0 0 0 0 Z "/>
                <g class="typst-group">
                    <g>
                        <g class="typst-group" transform="matrix(1 0 0 1 0.35178735433070984 101.91988577952758)">
                            <g>
                                <g class="typst-text" transform="matrix(1 0 0 -1 0 7.513000000000001)">
                                    <use xlink:href="#g4991B04029C7F46B84910E5B098B918F" x="0" y="0" fill="#000000" fill-rule="nonzero"/>
                                </g>
                            </g>
                        </g>
                    </g>
                </g>
                <path class="typst-shape" fill="none" transform="matrix(1 0 0 1 23.244094488188978 102.80306496062992)" d="M 0 0c 0 0 5.75 0 5.75 0 c 0 0 0 7.1225 0 7.1225 c 0 0 -5.75 0 -5.75 0 c 0 0 0 0 0 0 c 0 0 0 -7.1225 0 -7.1225 c 0 0 0 0 0 0 Z "/>
                <g class="typst-group">
                    <g>
                        <g class="typst-group" transform="matrix(1 0 0 1 23.244094377952756 102.80306485039371)">
                            <g>
                                <g class="typst-group">
                                    <g>
                                        <path class="typst-shape" fill="#ffffff" fill-rule="nonzero" d="M 0 0v 7.1225 h 5.75 v -7.1225 Z "/>
                                        <g class="typst-text" transform="matrix(1 0 0 -1 1 6.1225)">
                                            <use xlink:href="#g43E83E0CD73343E7BB5CA45D6D0ABDE4" x="0" y="0" fill="#000000" fill-rule="nonzero"/>
                                        </g>
                                    </g>
                                </g>
                            </g>
                        </g>
                    </g>
                </g>
                <path class="typst-shape" fill="none" transform="matrix(1 0 0 1 47.05511811023623 102.72056496062993)" d="M 0 0c 0 0 5.75 0 5.75 0 c 0 0 0 7.2875 0 7.2875 c 0 0 -5.75 0 -5.75 0 c 0 0 0 0 0 0 c 0 0 0 -7.2875 0 -7.2875 c 0 0 0 0 0 0 Z "/>
                <g class="typst-group">
                    <g>
                        <g class="typst-group" transform="matrix(1 0 0 1 47.055118 102.72056489763781)">
                            <g>
                                <g class="typst-group">
                                    <g>
                                        <path class="typst-shape" fill="#ffffff" fill-rule="nonzero" d="M 0 0v 7.1225 h 5.75 v -7.1225 Z "/>
                                        <g class="typst-text" transform="matrix(1 0 0 -1 1 6.1225)">
                                            <use xlink:href="#g89ACEB520E282DC3B33E48CC279730CF" x="0" y="0" fill="#000000" fill-rule="nonzero"/>
                                        </g>
                                    </g>
                                </g>
                            </g>
                        </g>
                    </g>
                </g>
                <path class="typst-shape" fill="none" transform="matrix(1 0 0 1 0 48.862297244094485)" d="M 0 0c 0 0 5.75 0 5.75 0 c 0 0 0 7.2875 0 7.2875 c 0 0 -5.75 0 -5.75 0 c 0 0 0 0 0 0 c 0 0 -0.0000000000000015735444 -7.2875 -0.0000000000000015735444 -7.2875 c 0 0 0 0 0 0 Z "/>
                <g class="typst-group">
                    <g>
                        <g class="typst-group" transform="matrix(1 0 0 1 -0.00000011023621929894929 48.86229718110236)">
                            <g>
                                <g class="typst-group">
                                    <g>
                                        <path class="typst-shape" fill="#ffffff" fill-rule="nonzero" d="M 0 0v 7.1225 h 5.75 v -7.1225 Z "/>
                                        <g class="typst-text" transform="matrix(1 0 0 -1 1 6.1225)">
                                            <use xlink:href="#g3348803E30F1724CE221DBA2ACA5DD83" x="0" y="0" fill="#000000" fill-rule="nonzero"/>
                                        </g>
                                    </g>
                                </g>
                            </g>
                        </g>
                    </g>
                </g>
                <path class="typst-shape" fill="none" transform="matrix(1 0 0 1 0 25.051273622047233)" d="M 0 0c 0 0 5.75 0 5.75 0 c 0 0 0 7.2875 0 7.2875 c 0 0 -5.75 0 -5.75 0 c 0 0 0 0 0 0 c 0 0 -0.0000000000000015735444 -7.2875 -0.0000000000000015735444 -7.2875 c 0 0 0 0 0 0 Z "/>
                <g class="typst-group">
                    <g>
                        <g class="typst-group" transform="matrix(1 0 0 1 -0.00000011023621929894929 25.05127355905511)">
                            <g>
                                <g class="typst-group">
                                    <g>
                                        <path class="typst-shape" fill="#ffffff" fill-rule="nonzero" d="M 0 0v 7.1225 h 5.75 v -7.1225 Z "/>
                                        <g class="typst-text" transform="matrix(1 0 0 -1 1 6.1225)">
                                            <use xlink:href="#gF0B2B8563CC85EA4B9A20B1B09ABBB33" x="0" y="0" fill="#000000" fill-rule="nonzero"/>
                                        </g>
                                    </g>
                                </g>
                            </g>
                        </g>
                    </g>
                </g>
                <path class="typst-shape" fill="#000000" fill-rule="nonzero" stroke="#2563eb" stroke-width="1.2" stroke-linecap="butt" stroke-linejoin="miter" stroke-miterlimit="4" transform="matrix(1 0 0 1 8.44507874015748 98.328094488189)" d="M 0 0m 1.8 0 c -0.99321115 0 -1.8 0.8067888 -1.8 1.8 c 0 0 0 0 0 0 c 0 0.99321127 0.8067888 1.8 1.8 1.8 c 0 0 0 0 0 0 c 0.99321127 0 1.8 -0.8067887 1.8 -1.8 c 0 0 0 0 0 0 c 0 -0.99321115 -0.8067887 -1.8 -1.8 -1.8 c 0 0 0 0 0 0 Z "/>
                <path class="typst-shape" fill="#000000" fill-rule="nonzero" stroke="#2563eb" stroke-width="1.2" stroke-linecap="butt" stroke-linejoin="miter" stroke-miterlimit="4" transform="matrix(1 0 0 1 47.93011811023623 98.12809448818899)" d="M 0 0m 2 0 c -1.1035681 0 -2 0.896432 -2 2 c 0 0 0 0 0 0 c 0 1.1035681 0.896432 2 2 2 c 0 0 0 0 0 0 c 1.1035681 0 2 -0.8964319 2 -2 c 0 0 0 0 0 0 c 0 -1.1035681 -0.8964319 -2 -2 -2 c 0 0 0 0 0 0 Z "/>
                <path class="typst-shape" fill="none" transform="matrix(1 0 0 1 49.51919291338583 90.33062401574803)" d="M 0 0c 0 0 7.625 0 7.625 0 c 0 0 0 7.1225 0 7.1225 c 0 0 -7.625 0 -7.625 0 c 0 0 0 0 0 0 c 0 0 0 -7.1225 0 -7.1225 c 0 0 0 0 0 0 Z "/>
                <g class="typst-group">
                    <g>
                        <g class="typst-group" transform="matrix(1 0 0 1 49.5191928503937 90.3306239055118)">
                            <g>
                                <g class="typst-group">
                                    <g>
                                        <path class="typst-shape" fill="#ffffff" fill-rule="nonzero" d="M 0 0v 7.1225 h 7.625 v -7.1225 Z "/>
                                        <g class="typst-text" transform="matrix(1 0 0 -1 1 6.1225)">
                                            <use xlink:href="#g798BECFF8AC75B34AAB08AD1D1030F9F" x="0" y="0" fill="#000000" fill-rule="nonzero"/>
                                        </g>
                                    </g>
                                </g>
                            </g>
                        </g>
                    </g>
                </g>
                <path class="typst-shape" fill="#000000" fill-rule="nonzero" stroke="#2563eb" stroke-width="1.2" stroke-linecap="butt" stroke-linejoin="miter" stroke-miterlimit="4" transform="matrix(1 0 0 1 8.245078740157481 26.695023622047238)" d="M 0 0m 2 0 c -1.1035681 0 -2 0.896432 -2 2 c 0 0 0 0 0 0 c 0 1.1035681 0.896432 2 2 2 c 0 0 0 0 0 0 c 1.1035681 0 2 -0.8964319 2 -2 c 0 0 0 0 0 0 c 0 -1.1035681 -0.8964319 -2 -2 -2 c 0 0 0 0 0 0 Z "/>
                <path class="typst-shape" fill="none" transform="matrix(1 0 0 1 12.526299212598426 21.649698818897626)" d="M 0 0c 0 0 7.91 0 7.91 0 c 0 0 0 7.2875 0 7.2875 c 0 0 -7.91 0 -7.91 0 c 0 0 0 0 0 0 c 0 0 0 -7.2875 0 -7.2875 c 0 0 0 0 0 0 Z "/>
                <g class="typst-group">
                    <g>
                        <g class="typst-group" transform="matrix(1 0 0 1 12.526299102362207 21.6496987559055)">
                            <g>
                                <g class="typst-group">
                                    <g>
                                        <path class="typst-shape" fill="#ffffff" fill-rule="nonzero" d="M 0 0v 7.1225 h 7.91 v -7.1225 Z "/>
                                        <g class="typst-text" transform="matrix(1 0 0 -1 1 6.1225)">
                                            <use xlink:href="#g2ED7DF0CA58A18F9F2E4EB6530564233" x="0" y="0" fill="#000000" fill-rule="nonzero"/>
                                        </g>
                                    </g>
                                </g>
                            </g>
                        </g>
                    </g>
                </g>
                <path class="typst-shape" fill="#dc2626" fill-rule="nonzero" stroke="#ffffff" stroke-width="0.8" stroke-linecap="butt" stroke-linejoin="miter" stroke-miterlimit="4" transform="matrix(1 0 0 1 23.619094488188978 50.00604724409449)" d="M 0 0m 2.5 0 c -1.37946 0 -2.5 1.12054 -2.5 2.5 c 0 0 0 0 0 0 c 0 1.3794601 1.12054 2.5 2.5 2.5 c 0 0 0 0 0 0 c 1.3794601 0 2.5 -1.1205399 2.5 -2.5 c 0 0 0 0 0 0 c 0 -1.37946 -1.1205399 -2.5 -2.5 -2.5 c 0 0 0 0 0 0 Z "/>
                <path class="typst-shape" fill="none" transform="matrix(1 0 0 1 28.482979002624674 40.49543307086615)" d="M 0 0c 0 0 26.453333 0 26.453333 0 c 0 0 0 9.848 0 9.848 c 0 0 -26.453333 0 -26.453333 0 c 0 0 0 0 0 0 c 0 0 0 -9.848 0 -9.848 c 0 0 0 0 0 0 Z "/>
                <g class="typst-group">
                    <g>
                        <g class="typst-group" transform="matrix(1 0 0 1 28.48297892913386 40.49543300787402)">
                            <g>
                                <g class="typst-group">
                                    <g>
                                        <path class="typst-shape" fill="#ffffff" fill-rule="nonzero" d="M 0 0v 7.864 h 26.453333 v -7.864 Z "/>
                                        <g class="typst-group">
                                            <g>
                                                <g class="typst-text" transform="matrix(1 0 0 -1 1.2 6.664)">
                                                    <use xlink:href="#g618A1BF9A8BE7EB3CF3339EF79474675" x="0" y="0" fill="#dc2626" fill-rule="nonzero"/>
                                                </g>
                                                <g class="typst-text" transform="matrix(1 0 0 -1 7.4719999999999995 6.664)">
                                                    <use xlink:href="#g9CE4F5C95C35E33C35383BF43AB75FCF" x="0" y="0" fill="#dc2626" fill-rule="nonzero"/>
                                                </g>
                                                <g class="typst-text" transform="matrix(1 0 0 -1 10.584000000000001 6.664)">
                                                    <use xlink:href="#g90FFABBFD8888E8C1C8B8A05939DF512" x="0" y="0" fill="#dc2626" fill-rule="nonzero"/>
                                                </g>
                                                <g class="typst-text" transform="matrix(1 0 0 -1 14.584000000000001 6.664)">
                                                    <use xlink:href="#g2445F08D37F287E2E4818C624C567646" x="0" y="0" fill="#dc2626" fill-rule="nonzero"/>
                                                </g>
                                                <g class="typst-text" transform="matrix(1 0 0 -1 18.141333333333336 6.664)">
                                                    <use xlink:href="#g482B8F9E5A3A41A47C4237142A430B9" x="0" y="0" fill="#dc2626" fill-rule="nonzero"/>
                                                </g>
                                                <g class="typst-text" transform="matrix(1 0 0 -1 22.141333333333336 6.664)">
                                                    <use xlink:href="#gD0B47FD125B2E8E2C3C395F760877A8F" x="0" y="0" fill="#dc2626" fill-rule="nonzero"/>
                                                </g>
                                            </g>
                                        </g>
                                    </g>
                                </g>
                            </g>
                        </g>
                    </g>
                </g>
            </g>
        </g>
    </g>
    <defs id="glyph">
        <symbol id="gD46E0AA129BA45711853E1EB90354ADF" overflow="visible">
            <path d="M 0 0m 2.121 2.4710002 c 0.46200013 0.17499995 0.89600015 0.61599994 0.89600015 1.211 c 0 0.30099988 -0.14700007 0.546 -0.43400002 0.73500013 c -0.2520001 0.16099977 -0.53900003 0.24499989 -0.8610002 0.24499989 c -0.31499994 0 -0.58799994 -0.08400011 -0.833 -0.24499989 c -0.273 -0.18200016 -0.413 -0.42000008 -0.413 -0.7210002 c 0 -0.23099995 0.15399998 -0.39199996 0.37800002 -0.39199996 c 0.22400004 0 0.37799996 0.16100001 0.37799996 0.385 c 0 0.23099995 -0.13300002 0.35699987 -0.399 0.3709998 c 0.18199998 0.24500036 0.46900004 0.3710003 0.861 0.3710003 c 0.42000008 0 0.6300001 -0.24499989 0.6300001 -0.7420001 c 0 -0.2939999 -0.055999994 -0.53900003 -0.16100001 -0.7420001 c -0.18900001 -0.33599997 -0.44800007 -0.39899993 -0.8820001 -0.39899993 c -0.08399999 -0.013999939 -0.12599993 -0.049000025 -0.12599993 -0.11199999 c 0 -0.10500002 0.048999906 -0.10500002 0.18900001 -0.10500002 h 0.301 c 0.525 0 0.791 -0.37100005 0.791 -1.12 c 0 -0.5950001 -0.21700001 -1.113 -0.7490001 -1.113 c -0.45500004 0 -0.791 0.154 -0.994 0.462 c 0.245 -0.0069999695 0.427 0.17500001 0.427 0.41300005 c 0 0.23800004 -0.17499995 0.413 -0.413 0.413 c -0.273 0 -0.41300002 -0.13999999 -0.41300002 -0.427 c 0 -0.34300005 0.15400001 -0.61600006 0.46200004 -0.83300006 c 0.273 -0.18900001 0.595 -0.28 0.952 -0.28 c 0.39900005 0 0.742 0.133 1.0430001 0.39200002 c 0.30099988 0.259 0.44799995 0.581 0.44799995 0.97300005 c 0 0.658 -0.5180001 1.113 -1.0780001 1.2600001 Z "/>
        </symbol>
        <symbol id="g42E741CA9E7544940B559B38221B3356" overflow="visible">
            <path d="M 0 0m 3.6890001 2.611 c 0 0.32200003 -0.31500006 0.48300004 -0.66499996 0.48300004 c -0.30100012 0 -0.53900003 -0.16100001 -0.7210002 -0.48300004 c -0.14699984 0.32200003 -0.39199996 0.48300004 -0.74899995 0.48300004 c -0.34299994 0 -0.62299997 -0.16100001 -0.847 -0.47600007 c -0.18900001 -0.273 -0.287 -0.47600007 -0.287 -0.60899997 c 0 -0.062999964 0.034999996 -0.09800005 0.10500002 -0.09800005 c 0.062999964 0 0.10499996 0.035000086 0.11899996 0.09800005 c 0.13300002 0.4059999 0.427 0.88199997 0.8960001 0.88199997 c 0.23099995 0 0.34299994 -0.14699984 0.34299994 -0.43400002 c 0 -0.14699984 -0.12599993 -0.69299996 -0.37099993 -1.631 c -0.11900008 -0.469 -0.329 -0.70000005 -0.63000005 -0.70000005 c -0.09799999 0 -0.18900001 0.020999998 -0.26600003 0.05600001 c 0.18200004 0.06999999 0.273 0.19600001 0.273 0.378 c 0 0.18200004 -0.09099996 0.273 -0.27999997 0.273 c -0.231 0 -0.40600002 -0.19599998 -0.40600002 -0.427 c 0 -0.32200003 0.329 -0.483 0.672 -0.483 c 0.29400003 0 0.53200006 0.16100001 0.7210001 0.483 c 0.13300002 -0.32200003 0.385 -0.483 0.74899995 -0.483 c 0.33599997 0 0.6160002 0.16100001 0.84000015 0.476 c 0.18899989 0.27300003 0.28699994 0.47599998 0.28699994 0.60899997 c 0 0.062999964 -0.035000086 0.09800005 -0.10500002 0.09800005 c -0.062999964 0 -0.09800005 -0.035000086 -0.11899996 -0.09800005 c -0.11899996 -0.399 -0.43400002 -0.882 -0.8890002 -0.882 c -0.23099995 0 -0.3499999 0.14 -0.3499999 0.42700005 c 0 0.09099996 0.035000086 0.287 0.11199999 0.60200006 l 0.23799992 0.94500005 c 0.13300014 0.52499986 0.35000014 0.7909999 0.65800023 0.7909999 c 0.09799981 0 0.18899989 -0.020999908 0.2659998 -0.055999994 c -0.18899989 -0.062999964 -0.27999997 -0.18899989 -0.27999997 -0.37800002 c 0 -0.18199992 0.09800005 -0.273 0.28700018 -0.273 c 0.22399998 0 0.39899993 0.20300007 0.39899993 0.42700005 Z "/>
        </symbol>
        <symbol id="g669F99B469F718E391EE33422EB24CE" overflow="visible">
            <path d="M 0 0m 4.886 1.9180001 h -1.9950001 v 1.995 c 0 0.11199999 -0.055999994 0.16800022 -0.16799998 0.16800022 c -0.11199999 0 -0.16799998 -0.056000233 -0.16799998 -0.16800022 v -1.995 h -1.9950001 c -0.11199999 0 -0.16799998 -0.055999994 -0.16799998 -0.1680001 c 0 -0.11199999 0.055999994 -0.16799998 0.16799998 -0.16799998 h 1.9950001 v -1.995 c 0 -0.11200002 0.055999994 -0.16800001 0.16799998 -0.16800001 c 0.11199999 0 0.16799998 0.055999994 0.16799998 0.16800001 v 1.995 h 1.9950001 c 0.11199999 0 0.16800022 0.055999994 0.16800022 0.16799998 c 0 0.09100008 -0.07700014 0.1680001 -0.16800022 0.1680001 Z "/>
        </symbol>
        <symbol id="gEDFE3F6BEDC82E33787A0CB3F2F3B0A1" overflow="visible">
            <path d="M 0 0m 1.659 4.662 c -0.357 0 -0.658 -0.12599993 -0.917 -0.37800026 c -0.25900003 -0.25199986 -0.39200002 -0.54599977 -0.39200002 -0.9029999 c 0 -0.23799992 0.17500001 -0.41299987 0.39200002 -0.41299987 c 0.20999998 0 0.38500005 0.18199992 0.38500005 0.39199996 c 0 0.23099995 -0.16800004 0.39199996 -0.39200008 0.39199996 c -0.020999968 0 -0.034999967 0 -0.048999965 -0.0069999695 c 0.13299996 0.34300017 0.44100004 0.6439998 0.882 0.6439998 c 0.5739999 0 0.8959999 -0.49699974 0.8959999 -1.0989997 c 0 -0.4690001 -0.23799992 -0.97300005 -0.714 -1.5050001 l -1.316 -1.4840001 c -0.09099999 -0.10499999 -0.08399999 -0.09799999 -0.08399999 -0.301 h 2.5970001 l 0.20300007 1.26 h -0.23099995 c -0.055999994 -0.35699993 -0.10500002 -0.55999994 -0.14700007 -0.62299997 c -0.035000086 -0.035000026 -0.24499989 -0.049000025 -0.6300001 -0.049000025 h -1.1689999 l 0.679 0.665 c 0.47599995 0.44800007 1.078 0.931 1.281 1.302 c 0.1400001 0.24500012 0.21000004 0.49 0.21000004 0.73500013 c 0 0.826 -0.64400005 1.372 -1.4840001 1.372 Z "/>
        </symbol>
        <symbol id="g839A20B3AF16396562D7F87A0CA8ACD9" overflow="visible">
            <path d="M 0 0m 1.141 3.094 c -0.315 0 -0.56 -0.17499995 -0.735 -0.5250001 c -0.13300002 -0.273 -0.20300001 -0.4619999 -0.20300001 -0.5669999 c 0 -0.06300008 0.034999996 -0.09800005 0.11199999 -0.09800005 c 0.09800002 0 0.10500002 0.042000055 0.13300002 0.14700007 c 0.16100001 0.553 0.385 0.83299994 0.672 0.83299994 c 0.09100008 0 0.13999999 -0.062999964 0.13999999 -0.18899989 c 0 -0.11199999 -0.034999967 -0.273 -0.11199999 -0.47600007 c -0.26599997 -0.7210001 -0.399 -1.2040001 -0.399 -1.463 c 0 -0.53200006 0.32900006 -0.84700006 0.8680001 -0.84700006 c 0.23099995 0 0.44799995 0.08400001 0.64400005 0.252 c -0.24500012 -0.924 -0.6300001 -1.386 -1.1550001 -1.386 c -0.23800004 0 -0.39900005 0.07700002 -0.48300004 0.231 c 0.28000003 0.013999999 0.41999996 0.14700001 0.41999996 0.399 c 0 0.17500001 -0.09099996 0.26600003 -0.27999997 0.26600003 c -0.259 0 -0.413 -0.21700001 -0.413 -0.476 c 0 -0.38500005 0.35000002 -0.63000005 0.75600004 -0.63000005 c 0.80499995 0 1.4629999 0.74200004 1.6380001 1.4280001 l 0.658 2.6460001 c 0.020999908 0.0769999 0.027999878 0.1329999 0.027999878 0.16799998 c 0 0.13999987 -0.0769999 0.21000004 -0.22399998 0.21000004 c -0.11199999 0 -0.20300007 -0.055999994 -0.26600003 -0.16100001 c -0.042000055 -0.14700007 -0.0769999 -0.273 -0.09800005 -0.37800002 l -0.44799995 -1.7990001 c -0.06999993 -0.252 -0.44099998 -0.56700003 -0.75600004 -0.56700003 c -0.2659999 0 -0.39899993 0.175 -0.39899993 0.532 c 0 0.29400003 0.11899996 0.74200004 0.35000002 1.3440001 c 0.09099996 0.245 0.13999999 0.413 0.13999999 0.51100004 c 0 0.34299994 -0.245 0.595 -0.58800006 0.595 Z "/>
        </symbol>
        <symbol id="gDCE7AD7295AC3C5D15A3DE975C4E8346" overflow="visible">
            <path d="M 0 0m 4.886 2.569 h -4.326 c -0.11199999 0 -0.16799998 -0.055999994 -0.16799998 -0.16100001 c 0 -0.10500002 0.055999994 -0.16100001 0.16799998 -0.16100001 h 4.326 c 0.11199999 0 0.16800022 0.055999994 0.16800022 0.16100001 c 0 0.08400011 -0.07700014 0.16100001 -0.16800022 0.16100001 Z m 0 -1.316 h -4.326 c -0.11199999 0 -0.16799998 -0.055999994 -0.16799998 -0.16100001 c 0 -0.10499996 0.055999994 -0.16099995 0.16799998 -0.16099995 h 4.326 c 0.11199999 0 0.16800022 0.055999994 0.16800022 0.16099995 c 0 0.09100008 -0.07700014 0.16100001 -0.16800022 0.16100001 Z "/>
        </symbol>
        <symbol id="g8E79570005FE235A31D7FE8A6CFDC0A4" overflow="visible">
            <path d="M 0 0m 1.883 4.662 c -0.28699994 -0.29400015 -0.707 -0.44099998 -1.26 -0.44099998 v -0.273 c 0.36400002 0 0.66499996 0.055999994 0.896 0.16799998 v -3.5420003 c 0 -0.12599999 -0.027999997 -0.20999998 -0.09099996 -0.245 c -0.06300008 -0.034999996 -0.23800004 -0.055999994 -0.51800007 -0.055999994 h -0.245 v -0.273 c 0.17500001 0.014 0.55300003 0.021000002 1.1340001 0.021000002 c 0.5810001 0 0.9590001 -0.007000001 1.1340001 -0.021000002 v 0.273 h -0.24499989 c -0.28700018 0 -0.46200013 0.020999998 -0.5180001 0.055999994 c -0.055999994 0.035000026 -0.09100008 0.11900002 -0.09100008 0.245 v 3.8780003 c 0 0.16800022 -0.013999939 0.21000004 -0.19599998 0.21000004 Z "/>
        </symbol>
        <symbol id="g3D51F7FFFA33BFC8B25D374410CE277F" overflow="visible">
            <path d="M 0 0m 1.75 4.662 c -0.34299994 0 -0.64399993 -0.11199999 -0.89599997 -0.33599997 c -0.25200003 -0.22399998 -0.37800002 -0.5040002 -0.37800002 -0.8470001 c 0 -0.28699994 0.10500002 -0.546 0.315 -0.77699995 c 0.049000025 -0.055999994 0.20300001 -0.17499995 0.462 -0.3570001 c -0.637 -0.329 -0.959 -0.7559999 -0.959 -1.274 c 0 -0.37099993 0.15400001 -0.67199993 0.455 -0.903 c 0.28000003 -0.21700001 0.609 -0.32200003 0.994 -0.32200003 c 0.39199996 0 0.73500013 0.126 1.0220001 0.37800002 c 0.28699994 0.252 0.43400002 0.581 0.43400002 0.9660001 c 0 0.32200003 -0.11199999 0.60899997 -0.34299994 0.86800003 c -0.08400011 0.09100008 -0.30100012 0.2520001 -0.64400005 0.4690001 c 0.53900003 0.28699994 0.80500007 0.651 0.80500007 1.0779998 c 0 0.6370001 -0.6090002 1.0570002 -1.2670002 1.0570002 Z m 0.9030001 -1.0570002 c 0 -0.36399984 -0.21700001 -0.6789999 -0.651 -0.93799996 l -0.83300006 0.546 c -0.21700001 0.1400001 -0.329 0.32200003 -0.329 0.53900003 c 0 0.41999984 0.45500004 0.67900014 0.903 0.67900014 c 0.48300004 0 0.9100001 -0.34299994 0.9100001 -0.8260002 Z m -0.9030001 -3.507 c -0.574 0 -1.0569999 0.41300005 -1.0569999 0.973 c 0 0.4690001 0.259 0.8470001 0.777 1.1340002 l 0.826 -0.5250001 c 0.33599997 -0.21700001 0.5040002 -0.462 0.5040002 -0.74200004 c 0 -0.504 -0.5250001 -0.84000003 -1.0500002 -0.84000003 Z "/>
        </symbol>
        <symbol id="gCD54B4BF86288A90ED5E864C8DFBB20" overflow="visible">
            <path d="M 0 0m 1.743 -0.154 c 0.987 0 1.477 0.798 1.477 2.394 c 0 1.0710001 -0.22399998 1.7850001 -0.66499996 2.135 c -0.24499989 0.18900013 -0.5179999 0.28700018 -0.80500007 0.28700018 c -0.987 0 -1.477 -0.80500007 -1.477 -2.4220002 c 0 -1.288 0.343 -2.394 1.47 -2.394 Z m 0.78400016 3.8220003 c 0.048999786 -0.24500012 0.06999993 -0.6930001 0.06999993 -1.3440001 c 0 -0.64400005 -0.028000116 -1.1200001 -0.07700014 -1.4280001 c -0.09099984 -0.56 -0.3499999 -0.84000003 -0.77699995 -0.84000003 c -0.16100001 0 -0.32200003 0.063 -0.46899998 0.18200001 c -0.18900001 0.16100001 -0.301 0.49000004 -0.35000002 0.99399996 c -0.020999968 0.17500007 -0.027999997 0.53900003 -0.027999997 1.0920001 c 0 0.60899997 0.021000028 1.036 0.055999994 1.267 c 0.062999964 0.385 0.18900001 0.6300001 0.385 0.73500013 c 0.15400004 0.08400011 0.28700006 0.12599993 0.40600002 0.12599993 c 0.45499992 0 0.707 -0.3709998 0.78400016 -0.7839999 Z "/>
        </symbol>
        <symbol id="g373C58D24DC21C3C64134732861AB4A0" overflow="visible">
            <path d="M 0 0m 5.797 4.103 c 0 0.50600004 -0.4949999 0.7589998 -1.0450001 0.7589998 c -0.47300005 0 -0.8469999 -0.25299978 -1.1329999 -0.7589998 c -0.23099995 0.50600004 -0.61599994 0.7589998 -1.177 0.7589998 c -0.5389999 0 -0.979 -0.25299978 -1.331 -0.74800014 c -0.29699993 -0.4289999 -0.45099998 -0.7479999 -0.45099998 -0.9569998 c 0 -0.09899998 0.055000007 -0.15400004 0.16500002 -0.15400004 c 0.09900004 0 0.16500002 0.055000067 0.18699998 0.15400004 c 0.20899999 0.638 0.671 1.3859997 1.4080001 1.3859997 c 0.36299992 0 0.5389998 -0.23099995 0.5389998 -0.6819997 c 0 -0.23100019 -0.19799995 -1.089 -0.58299994 -2.5630002 c -0.18700004 -0.737 -0.51699996 -1.1 -0.9899999 -1.1 c -0.15400004 0 -0.29700005 0.033000007 -0.41800004 0.088000014 c 0.28599995 0.109999985 0.42899996 0.30799997 0.42899996 0.594 c 0 0.286 -0.143 0.42900002 -0.43999994 0.42900002 c -0.36300004 0 -0.638 -0.30799997 -0.638 -0.671 c 0 -0.50600004 0.51699996 -0.759 1.056 -0.759 c 0.462 0 0.83599997 0.253 1.1329999 0.759 c 0.20900011 -0.50600004 0.605 -0.759 1.177 -0.759 c 0.5279999 0 0.96799994 0.253 1.3200002 0.74799997 c 0.29699993 0.42900002 0.45099974 0.748 0.45099974 0.957 c 0 0.09899998 -0.05499983 0.15400004 -0.16499996 0.15400004 c -0.09899998 0 -0.1539998 -0.055000067 -0.1869998 -0.15400004 c -0.18700027 -0.627 -0.68200016 -1.386 -1.3970001 -1.386 c -0.36300015 0 -0.54999995 0.21999998 -0.54999995 0.671 c 0 0.14299995 0.05499983 0.45099992 0.17599988 0.9459999 l 0.37400007 1.485 c 0.20899987 0.82500005 0.54999995 1.2429998 1.0340002 1.2429998 c 0.1539998 0 0.29699993 -0.032999992 0.41799974 -0.08799982 c -0.29699993 -0.09899998 -0.44000006 -0.29699993 -0.44000006 -0.59399986 c 0 -0.286 0.15400028 -0.42900014 0.4510002 -0.42900014 c 0.35199976 0 0.62699986 0.319 0.62699986 0.67100024 Z "/>
        </symbol>
        <symbol id="gDE806B36A156762E7F60A533F4A2DAC8" overflow="visible">
            <path d="M 0 0m 1.793 4.862 c -0.495 0 -0.88 -0.2750001 -1.155 -0.8249998 c -0.20900002 -0.42900014 -0.319 -0.7260003 -0.319 -0.8910003 c 0 -0.09899998 0.055000007 -0.1539998 0.176 -0.1539998 c 0.15399998 0 0.16499996 0.065999985 0.20899999 0.23099995 c 0.25300002 0.86899996 0.605 1.309 1.056 1.309 c 0.143 0 0.22000003 -0.09899998 0.22000003 -0.29699993 c 0 -0.17600012 -0.055000067 -0.42900014 -0.176 -0.74800014 c -0.41799998 -1.1329999 -0.627 -1.892 -0.627 -2.299 c 0 -0.83599997 0.51699996 -1.331 1.3639998 -1.331 c 0.36300015 0 0.704 0.132 1.0120001 0.396 c -0.385 -1.452 -0.99 -2.178 -1.8149999 -2.178 c -0.37400007 0 -0.6270001 0.12099993 -0.75900006 0.36299992 c 0.44000006 0.022000074 0.65999997 0.23100007 0.65999997 0.62700003 c 0 0.27500004 -0.14299989 0.41799998 -0.43999994 0.41799998 c -0.407 0 -0.649 -0.34099996 -0.649 -0.74799997 c 0 -0.605 0.55 -0.9899999 1.188 -0.9899999 c 1.265 0 2.2990003 1.1659999 2.574 2.244 l 1.0340004 4.158 c 0.032999992 0.12100029 0.043999672 0.20900011 0.043999672 0.26399994 c 0 0.22000027 -0.12099981 0.3300004 -0.35199976 0.3300004 c -0.17600012 0 -0.31900024 -0.0880003 -0.41800022 -0.25300026 c -0.065999985 -0.23099995 -0.12099981 -0.4289999 -0.1539998 -0.59399986 l -0.704 -2.8270001 c -0.11000013 -0.39600003 -0.6930001 -0.89100003 -1.1880002 -0.89100003 c -0.41799998 0 -0.62699986 0.275 -0.62699986 0.83599997 c 0 0.462 0.18700004 1.166 0.54999995 2.112 c 0.14299989 0.385 0.22000003 0.6489999 0.22000003 0.803 c 0 0.53900003 -0.385 0.93499994 -0.924 0.93499994 Z "/>
        </symbol>
        <symbol id="g4991B04029C7F46B84910E5B098B918F" overflow="visible">
            <path d="M 0 0m 7.722 2.893 c 0.27499962 0.6270001 0.41800022 1.254 0.41800022 1.892 c 0 0.8580003 -0.25300026 1.5620003 -0.77000046 2.1230001 c -0.5169997 0.5609999 -1.1989999 0.8470001 -2.046 0.8470001 c -0.5829997 0 -1.1659999 -0.14300013 -1.7489998 -0.42900038 c -1.188 -0.5829997 -2.0570002 -1.507 -2.618 -2.7609997 c -0.27500004 -0.6160002 -0.41800004 -1.2320001 -0.41800004 -1.859 c 0 -0.8690001 0.25300002 -1.5730001 0.77000004 -2.1230001 c 0.51699996 -0.55 1.1989999 -0.825 2.057 -0.825 c 0.572 0 1.1439998 0.143 1.727 0.41799998 c 1.1989999 0.583 2.0679998 1.4959999 2.6290002 2.717 Z m -0.638 2.3209999 c 0 -1.4629998 -0.6600003 -2.9259996 -1.3640003 -3.7949996 c -0.48399973 -0.605 -1.3199997 -1.2870001 -2.2879999 -1.2870001 c -1.177 0 -1.793 1.023 -1.793 2.266 c 0 0.385 0.07700002 0.90199995 0.22000003 1.529 c 0.29699993 1.2979999 1.0450001 2.442 2.024 3.0359998 c 0.47300005 0.28600025 0.93499994 0.42900038 1.375 0.42900038 c 1.1880002 0 1.8260002 -0.9460001 1.8260002 -2.1780005 Z "/>
        </symbol>
        <symbol id="g43E83E0CD73343E7BB5CA45D6D0ABDE4" overflow="visible">
            <path d="M 0 0m 1.7774999 4.995 c -0.38249993 0 -0.7049999 -0.13500023 -0.98249996 -0.4050002 c -0.27749997 -0.26999998 -0.41999996 -0.58499956 -0.41999996 -0.96749973 c 0 -0.2550001 0.1875 -0.4425001 0.41999996 -0.4425001 c 0.22500002 0 0.41250002 0.19500017 0.41250002 0.42000008 c 0 0.24749994 -0.17999995 0.42000008 -0.42000002 0.42000008 c -0.022499979 0 -0.037499964 0 -0.05250001 -0.0075001717 c 0.14250004 0.3675003 0.47250003 0.69000006 0.945 0.69000006 c 0.6149999 0 0.9599999 -0.5324998 0.9599999 -1.1775 c 0 -0.5024998 -0.25499988 -1.0425 -0.76499987 -1.6125 l -1.41 -1.5899999 c -0.097500026 -0.1125 -0.09 -0.10499999 -0.09 -0.3225 h 2.7825 l 0.21749997 1.35 h -0.24750018 c -0.059999943 -0.38250005 -0.11249995 -0.6 -0.15749979 -0.6675 c -0.037500143 -0.037500024 -0.26250005 -0.05250001 -0.6750002 -0.05250001 h -1.2524998 l 0.72749996 0.7125 c 0.51 0.48000002 1.155 0.99749994 1.3725 1.395 c 0.1500001 0.26250005 0.2249999 0.52499986 0.2249999 0.7874999 c 0 0.885 -0.6899998 1.47 -1.5899999 1.47 Z "/>
        </symbol>
        <symbol id="g89ACEB520E282DC3B33E48CC279730CF" overflow="visible">
            <path d="M 0 0m 0.885 2.3625 c 0.037499964 0 0.08249998 0.029999971 0.120000005 0.08249998 c 0.22500002 0.3375001 0.5325 0.50250006 0.9225 0.50250006 c 0.26250005 0 0.4649999 -0.1500001 0.5999999 -0.45749998 c 0.08249998 -0.2025001 0.12750006 -0.5100001 0.12750006 -0.9225 c 0 -0.47249997 -0.059999943 -0.8025 -0.17250013 -0.9975 c -0.1875 -0.3075 -0.44249988 -0.465 -0.76499987 -0.465 c -0.50250006 0 -0.9 0.36 -1.035 0.74999994 c 0.022499979 -0.007499993 0.037499964 0 0.067499995 0 c 0.22499996 0 0.41250002 0.17250007 0.41250002 0.39749998 c 0 0.23250008 -0.18750006 0.39 -0.41250002 0.39 c -0.26250002 0 -0.375 -0.14249992 -0.375 -0.41999996 c 0 -0.75 0.60749996 -1.3874999 1.3575 -1.3874999 c 0.4575001 0 0.84749997 0.16499999 1.1625 0.49499997 c 0.31500006 0.32999998 0.47249985 0.7275 0.47249985 1.185 c 0 0.43499994 -0.12749982 0.81000006 -0.38249993 1.1325 c -0.2774999 0.35249996 -0.62249994 0.52499986 -1.0424999 0.52499986 c -0.35250008 0 -0.65999997 -0.11249995 -0.9075 -0.33749986 v 1.335 c 0.20249999 -0.059999943 0.39750004 -0.09000015 0.6 -0.09000015 c 0.3449999 0 0.645 0.08249998 0.89999986 0.2550001 c 0.23250008 0.14249992 0.3900001 0.28499985 0.48000002 0.42000008 c 0.045000076 0.059999943 0.067500114 0.10499954 0.067500114 0.12749958 c 0 0.075000286 -0.037500143 0.11250019 -0.11249995 0.11250019 c -0.41250014 -0.15749979 -0.7650001 -0.23999977 -1.0500001 -0.23999977 c -0.33749998 0 -0.65999997 0.06749964 -0.9675 0.20999956 c -0.037500024 0.015000343 -0.067499995 0.022500038 -0.097500026 0.022500038 c -0.067499995 0 -0.10499996 -0.06749964 -0.10499996 -0.21000004 v -2.1899998 c 0 -0.15750003 0 -0.2249999 0.13499999 -0.2249999 Z "/>
        </symbol>
        <symbol id="g3348803E30F1724CE221DBA2ACA5DD83" overflow="visible">
            <path d="M 0 0m 2.8725 3.78 c 0.24749994 0 0.36750007 0.12750006 0.36750007 0.38249993 c 0 0.53999996 -0.40499997 0.8325 -0.96000004 0.8325 c -0.62250006 0 -1.1175 -0.29250002 -1.485 -0.88499975 c -0.32249996 -0.5100002 -0.47999996 -1.0875001 -0.47999996 -1.7400002 c 0 -0.95249987 0.17249998 -1.6199999 0.525 -2.0175 c 0.3 -0.345 0.64500004 -0.5175 1.0425 -0.5175 c 0.45749998 0 0.8325 0.17249998 1.125 0.5175 c 0.2774999 0.33 0.42000008 0.72749996 0.42000008 1.1850001 c 0 0.45749998 -0.13499999 0.84749997 -0.40499997 1.17 c -0.2850001 0.34500003 -0.65250015 0.52499986 -1.095 0.52499986 c -0.39 0 -0.69000006 -0.21749997 -0.89250004 -0.6374998 v 0.044999838 c 0 0.8475001 0.21000004 1.5675001 0.65999997 1.8975 c 0.19500005 0.14249992 0.39750004 0.21000004 0.5999999 0.21000004 c 0.27000022 0 0.46500015 -0.07499981 0.5925002 -0.23250008 c -0.2550001 0 -0.38250017 -0.14249992 -0.38250017 -0.36749983 c 0 -0.21000004 0.15750003 -0.36750007 0.36750007 -0.36750007 Z m -0.29250002 -1.23 c 0.08249998 -0.1724999 0.12750006 -0.51 0.12750006 -1.005 c 0 -0.48749995 -0.037500143 -0.81 -0.120000124 -0.97499996 c -0.14999986 -0.3075 -0.38249993 -0.465 -0.7049999 -0.465 c -0.21749997 0 -0.38249993 0.074999996 -0.50249994 0.225 c -0.09749997 0.120000005 -0.16500008 0.22500002 -0.19500005 0.3075 c -0.089999914 0.23250002 -0.13499999 0.585 -0.13499999 1.065 c 0 0.20999992 0.029999971 0.41250002 0.08249998 0.60749996 c 0.097500086 0.35249996 0.375 0.6824999 0.7875 0.6824999 c 0.2924999 0 0.51750004 -0.14999986 0.65999997 -0.44249988 Z "/>
        </symbol>
        <symbol id="gF0B2B8563CC85EA4B9A20B1B09ABBB33" overflow="visible">
            <path d="M 0 0m 0.87 1.05 c -0.2475 0 -0.3675 -0.1275 -0.3675 -0.3825 c 0 -0.56249994 0.45749998 -0.8325 1.05 -0.8325 c 0.5999999 0 1.0799999 0.29999998 1.4324999 0.9075 c 0.29250002 0.5025 0.4425001 1.0799999 0.4425001 1.7249999 c 0 0.95249987 -0.17250013 1.6274998 -0.51750016 2.0249999 c -0.29250002 0.3375001 -0.6299999 0.50250006 -1.0124999 0.50250006 c -0.4425 0 -0.80999994 -0.15749979 -1.1025 -0.48000002 c -0.32249996 -0.3375001 -0.47999996 -0.74250007 -0.47999996 -1.2149999 c 0 -0.45749998 0.13499999 -0.8475001 0.40499997 -1.1700001 c 0.28500003 -0.3449999 0.6525 -0.5174999 1.095 -0.5174999 c 0.39 0 0.68999994 0.21000004 0.89250004 0.6300001 v -0.097500086 c 0 -0.8175 -0.14249992 -1.3725 -0.43499994 -1.6725 c -0.23250008 -0.2475 -0.48000002 -0.3675 -0.7275001 -0.3675 c -0.29999995 0 -0.5174999 0.0675 -0.65999997 0.21000001 c 0.23249996 0 0.35249996 0.13499999 0.35249996 0.3675 c 0 0.20999998 -0.15750003 0.36749995 -0.36749995 0.36749995 Z m 0.9525 0.79499996 c -0.29250002 0 -0.51 0.1500001 -0.65999997 0.44999993 c -0.0825001 0.17250013 -0.12750006 0.51 -0.12750006 0.9975002 c 0 0.48749995 0.05250001 0.8175001 0.14999998 1.0050001 c 0.16500008 0.2999997 0.40499997 0.4499998 0.7125 0.4499998 c 0.3075 0 0.5324999 -0.1875 0.6750001 -0.5625 c 0.08249998 -0.2025001 0.13499999 -0.54750013 0.13499999 -1.0350001 c 0 -0.6524999 -0.29250002 -1.305 -0.885 -1.305 Z "/>
        </symbol>
        <symbol id="g798BECFF8AC75B34AAB08AD1D1030F9F" overflow="visible">
            <path d="M 0 0m 1.0275 0.022499999 c 0.13499999 0 0.5999999 -0.022499999 0.74249995 -0.022499999 c 0.11249995 0 0.16499996 0.06 0.16499996 0.1725 c 0 0.067499995 -0.044999957 0.1125 -0.14249992 0.11999999 c -0.21750009 0.007499993 -0.3225001 0.08250001 -0.3225001 0.225 c 0 0.067499995 0.067500114 0.21749997 0.21000004 0.4425 c 0.20249999 0.33750004 0.3449999 0.585 0.4425 0.74999994 h 1.8225 c 0 -0.05250001 0.0074999332 -0.15749991 0.029999971 -0.3225 c 0.05249977 -0.54749995 0.08249998 -0.84749997 0.08249998 -0.88499993 c 0 -0.14250001 -0.16499996 -0.21000001 -0.50250006 -0.21000001 c -0.14249992 0 -0.2099998 -0.059999987 -0.2099998 -0.17999999 c 0 -0.075 0.044999838 -0.1125 0.13499999 -0.1125 c 0.17999983 0 0.75 0.022499999 0.9299998 0.022499999 c 0.1500001 0 0.6824999 -0.022499999 0.8325 -0.022499999 c 0.11250019 0 0.16499996 0.06 0.16499996 0.17999999 c 0 0.075 -0.067500114 0.1125 -0.20249987 0.1125 c -0.21000004 0 -0.3375001 0.0150000155 -0.375 0.037499994 c -0.037499905 0.022500008 -0.067500114 0.09 -0.07499981 0.20249999 l -0.4500003 4.635 c -0.022500038 0.14249992 -0.0149998665 0.20249987 -0.17250013 0.20249987 c -0.089999676 0 -0.16499972 -0.045000076 -0.21749973 -0.14249992 l -2.58 -4.3275 c -0.2249999 -0.375 -0.5249999 -0.5775 -0.8924999 -0.60749996 c -0.120000005 -0.007499993 -0.18 -0.067499995 -0.18 -0.17999999 c 0 -0.075 0.045000017 -0.1125 0.1275 -0.1125 c 0.120000005 0 0.5175 0.022499999 0.63750005 0.022499999 Z m 2.6625 4.305 l 0.22500014 -2.3249998 h -1.6125 Z "/>
        </symbol>
        <symbol id="g2ED7DF0CA58A18F9F2E4EB6530564233" overflow="visible">
            <path d="M 0 0m 1.11 1.635 c 0 0.96000004 0.41999996 1.935 0.89250004 2.4750001 c 0.38249993 0.44249964 1.0424998 0.88499975 1.7849998 0.88499975 c 0.7800002 0 1.1624999 -0.5925002 1.1624999 -1.4024999 c 0 -0.067500114 -0.022500038 -0.30750012 -0.022500038 -0.375 c 0 -0.067500114 0.045000076 -0.10500002 0.14249992 -0.10500002 c 0.03750038 0 0.067500114 0.0074999332 0.09000015 0.0149998665 c 0.037499905 0.05250001 0.059999943 0.10500002 0.07499981 0.15750003 l 0.46500015 1.8975 c 0 0.067500114 -0.037499905 0.10500002 -0.112499714 0.10500002 c -0.03000021 0 -0.075000286 -0.03000021 -0.13500023 -0.09749985 l -0.4875002 -0.54750013 c -0.29249954 0.42749977 -0.7049999 0.645 -1.2374997 0.645 c -0.41250014 0 -0.8175001 -0.09749985 -1.23 -0.28499985 c -0.8325 -0.39000034 -1.4399999 -1.0050001 -1.8299999 -1.845 c -0.19499996 -0.41250014 -0.29249996 -0.8325 -0.29249996 -1.2600001 c 0 -0.5999999 0.1875 -1.0874999 0.57 -1.4775 c 0.3825 -0.39 0.86999995 -0.585 1.47 -0.585 c 0.5925 0 1.1324999 0.21749999 1.6199999 0.645 c 0.20249987 0.17249998 0.375 0.38249996 0.5174999 0.615 c 0.20250034 0.33749998 0.3074999 0.56999993 0.3074999 0.7125 c 0 0.067499995 -0.037499905 0.1049999 -0.119999886 0.1049999 c -0.06749964 0 -0.10500002 -0.029999971 -0.119999886 -0.09749997 c -0.15749979 -0.48749995 -0.4050002 -0.87749994 -0.74250007 -1.155 c -0.4275 -0.35249996 -0.8774998 -0.53249997 -1.3425 -0.53249997 c -0.89999986 0 -1.4249998 0.60749996 -1.4249998 1.5074999 Z "/>
        </symbol>
        <symbol id="g618A1BF9A8BE7EB3CF3339EF79474675" overflow="visible">
            <path d="M 0 0m 6.0480003 4.3440003 c 0 0.7279997 -0.72000027 1.1199999 -1.5040002 1.1199999 h -2.6560001 c -0.18400002 0 -0.26400006 -0.007999897 -0.26400006 -0.19199991 c 0 -0.12800026 0.15999997 -0.119999886 0.25600004 -0.119999886 c 0.24000001 -0.008000374 0.38400006 -0.024000168 0.42400002 -0.032000065 c 0.03999996 -0.007999897 0.055999994 -0.032000065 0.055999994 -0.07200003 c 0 -0.01600027 -0.008000135 -0.06400013 -0.032000065 -0.14400005 l -1.056 -4.248 c -0.03999996 -0.176 -0.120000005 -0.28 -0.24000001 -0.32 c -0.055999994 -0.016000003 -0.20000005 -0.024000019 -0.448 -0.024000019 c -0.16800004 0 -0.24800003 -0.063999996 -0.24800003 -0.192 c 0 -0.08 0.07999998 -0.120000005 0.24800003 -0.120000005 h 2.8240001 c 0.52 0 0.99999976 0.16000001 1.4560001 0.47200003 c 0.5039997 0.344 0.75999975 0.768 0.75999975 1.264 c 0 0.63199997 -0.52 1.016 -1.0879998 1.128 c 0.704 0.16799998 1.5120001 0.704 1.5120001 1.4800003 Z m -1.6160002 0.8080001 c 0.55200005 0 0.83200026 -0.25600004 0.83200026 -0.776 c 0 -0.40800023 -0.16000032 -0.7440002 -0.4960003 -1.0160003 c -0.33599997 -0.27200007 -0.7119999 -0.4000001 -1.1199999 -0.4000001 h -1.1120002 l 0.48000002 1.9200001 c 0.06400013 0.2720003 0.06400013 0.2720003 0.4000001 0.2720003 Z m 0.22399998 -2.7600002 c 0.11199999 -0.18400002 0.16800022 -0.36800003 0.16800022 -0.5680001 c 0 -0.416 -0.16000032 -0.776 -0.48799992 -1.072 c -0.32800007 -0.296 -0.69600034 -0.44000003 -1.1200004 -0.44000003 h -1.0799999 c -0.08000016 0 -0.13600016 0 -0.1680001 0.008000016 c -0.047999978 0 -0.07199991 0.016000003 -0.07199991 0.03999999 c 0 0.008000016 0 0.032000005 0.007999897 0.06400001 c 0.24800014 1.016 0.44000006 1.7840002 0.5680001 2.296 h 1.4720001 c 0.34399986 0 0.57599974 -0.11199999 0.7119999 -0.32799983 Z "/>
        </symbol>
        <symbol id="g9CE4F5C95C35E33C35383BF43AB75FCF" overflow="visible">
            <path d="M 0 0m 2.5440001 -1.9840001 c 0.07200003 0 0.11199999 0.03999996 0.11199999 0.11199999 c 0 0.024000049 -0.016000032 0.055999994 -0.03999996 0.08800006 c -0.41600013 0.31999993 -0.7520001 0.848 -1.0000001 1.576 c -0.21599996 0.632 -0.32799995 1.256 -0.32799995 1.872 v 0.67200017 c 0 0.61599994 0.11199999 1.24 0.32799995 1.872 c 0.24800003 0.72800016 0.584 1.256 1.0000001 1.5760002 c 0.02399993 0.023999691 0.03999996 0.055999756 0.03999996 0.08799982 c 0 0.07200003 -0.03999996 0.11199999 -0.11199999 0.11199999 c -0.008000135 0 -0.032000065 -0.007999897 -0.055999994 -0.023999691 c -0.48000002 -0.36800003 -0.8800001 -0.9120002 -1.2080001 -1.6400003 c -0.31200004 -0.6960001 -0.47200006 -1.352 -0.47200006 -1.984 v -0.67200017 c 0 -0.63199997 0.16000003 -1.288 0.47200006 -1.9840001 c 0.32799995 -0.72800004 0.72800004 -1.2720001 1.2080001 -1.64 c 0.02399993 -0.016000032 0.04799986 -0.024000049 0.055999994 -0.024000049 Z "/>
        </symbol>
        <symbol id="g90FFABBFD8888E8C1C8B8A05939DF512" overflow="visible">
            <path d="M 0 0m 1.8960001 5.328 c -0.4080001 0 -0.7520001 -0.14400005 -1.0480001 -0.43199968 c -0.296 -0.2880001 -0.44800004 -0.6240001 -0.44800004 -1.0320003 c 0 -0.27199984 0.20000002 -0.47199988 0.44800004 -0.47199988 c 0.24000001 0 0.44000006 0.20799994 0.44000006 0.44799995 c 0 0.26399994 -0.19200003 0.44799995 -0.44800007 0.44799995 c -0.023999989 0 -0.04000002 0 -0.055999994 -0.007999897 c 0.15200001 0.3920002 0.50400007 0.73600006 1.008 0.73600006 c 0.65600014 0 1.0240002 -0.56799984 1.0240002 -1.256 c 0 -0.536 -0.27200007 -1.112 -0.8160002 -1.72 l -1.504 -1.6960002 c -0.104 -0.120000005 -0.096000016 -0.112 -0.096000016 -0.344 h 2.9680002 l 0.23199987 1.44 h -0.26399994 c -0.06400013 -0.408 -0.120000124 -0.64000005 -0.16799998 -0.712 c -0.03999996 -0.04000002 -0.27999997 -0.055999994 -0.72 -0.055999994 h -1.3360001 l 0.776 0.76 c 0.544 0.5120001 1.232 1.064 1.4640001 1.488 c 0.15999985 0.27999997 0.24000001 0.5600002 0.24000001 0.84000015 c 0 0.94399977 -0.73600006 1.5679998 -1.6960001 1.5679998 Z "/>
        </symbol>
        <symbol id="g2445F08D37F287E2E4818C624C567646" overflow="visible">
            <path d="M 0 0m 1.536 3.0000002 c 0 0.24000001 -0.1839999 0.44799995 -0.4239999 0.44799995 c -0.24000007 0 -0.42400008 -0.20799994 -0.42400008 -0.44799995 c 0 -0.24800014 0.18400002 -0.4560001 0.42400008 -0.4560001 c 0.24000001 0 0.4239999 0.21600008 0.4239999 0.4560001 Z m -0.848 -2.5680003 c 0 -0.25599998 0.16800004 -0.448 0.42400008 -0.448 c 0.08799994 0 0.16799998 0.024 0.22399998 0.056 c -0.008000016 -0.52800006 -0.16799998 -0.9760001 -0.47200006 -1.344 c -0.03999996 -0.048000097 -0.055999994 -0.08800006 -0.055999994 -0.120000005 c 0 -0.08000004 0.032000005 -0.120000005 0.10400003 -0.120000005 c 0.03999996 0 0.11199999 0.06400001 0.21599996 0.19999993 c 0.288 0.37600005 0.43200004 0.8320001 0.43200004 1.376 c 0 0.568 -0.15199995 0.84800005 -0.44799995 0.84800005 c -0.25600004 0 -0.42400008 -0.19200003 -0.42400008 -0.44800004 Z "/>
        </symbol>
        <symbol id="g482B8F9E5A3A41A47C4237142A430B9" overflow="visible">
            <path d="M 0 0m 3.0640001 4.032 c 0.26399994 0 0.39199996 0.13600016 0.39199996 0.408 c 0 0.5760002 -0.43199992 0.888 -1.0239999 0.888 c -0.66400003 0 -1.1920002 -0.3119998 -1.5840001 -0.94399977 c -0.34400004 -0.54400015 -0.512 -1.1600001 -0.512 -1.8560002 c 0 -1.016 0.18400002 -1.7280002 0.56 -2.1520002 c 0.32000005 -0.36800003 0.6880001 -0.55200005 1.1120001 -0.55200005 c 0.48799992 0 0.888 0.18400002 1.2 0.55200005 c 0.296 0.35200003 0.44799995 0.776 0.44799995 1.264 c 0 0.48799992 -0.14400005 0.90400004 -0.43199992 1.2480001 c -0.30400014 0.3679998 -0.6960001 0.55999994 -1.1680002 0.55999994 c -0.4159999 0 -0.73599994 -0.23200011 -0.9519999 -0.68000007 v 0.048000097 c 0 0.90400004 0.22399998 1.6720002 0.704 2.024 c 0.20799994 0.15199995 0.42400002 0.22399998 0.6400001 0.22399998 c 0.28799987 0 0.49600005 -0.07999992 0.63199997 -0.24799967 c -0.27200007 0 -0.408 -0.15200043 -0.408 -0.3920002 c 0 -0.22399998 0.16799998 -0.3920002 0.39199996 -0.3920002 Z m -0.31200004 -1.312 c 0.08800006 -0.18400002 0.13600016 -0.5439999 0.13600016 -1.0719999 c 0 -0.5200001 -0.0400002 -0.8640001 -0.12800002 -1.0400001 c -0.16000009 -0.32800004 -0.40800023 -0.49600005 -0.7520001 -0.49600005 c -0.232 0 -0.4080001 0.08 -0.536 0.24000002 c -0.10400009 0.12799999 -0.17600012 0.23999998 -0.20800006 0.32799998 c -0.095999956 0.24800003 -0.14400005 0.624 -0.14400005 1.1360002 c 0 0.2240001 0.032000065 0.43999994 0.08800006 0.6480001 c 0.10399997 0.37599993 0.39999998 0.7279999 0.84000003 0.7279999 c 0.31200004 0 0.55200005 -0.16000009 0.704 -0.47200012 Z "/>
        </symbol>
        <symbol id="gD0B47FD125B2E8E2C3C395F760877A8F" overflow="visible">
            <path d="M 0 0m 0.624 -1.96 c 0.48000008 0.3679999 0.88000005 0.91199994 1.2080002 1.64 c 0.31199992 0.69600004 0.472 1.3520001 0.472 1.9840001 v 0.67200017 c 0 0.63199997 -0.16000009 1.2879999 -0.472 1.984 c -0.32800007 0.72800016 -0.72800004 1.2720003 -1.2080002 1.6400003 c -0.023999989 0.015999794 -0.047999978 0.023999691 -0.055999994 0.023999691 c -0.072 0 -0.11199999 -0.03999996 -0.11199999 -0.11199999 c 0 -0.032000065 0.016000003 -0.06400013 0.03999999 -0.08799982 c 0.41600004 -0.32000017 0.752 -0.84800005 1 -1.5760002 c 0.21600008 -0.63199997 0.32800007 -1.256 0.32800007 -1.872 v -0.67200017 c 0 -0.61599994 -0.11199999 -1.24 -0.32800007 -1.872 c -0.24800003 -0.72800004 -0.584 -1.256 -1 -1.576 c -0.023999989 -0.032000065 -0.03999999 -0.06400001 -0.03999999 -0.08800006 c 0 -0.07200003 0.03999999 -0.11199999 0.11199999 -0.11199999 c 0.008000016 0 0.032000005 0.008000016 0.055999994 0.024000049 Z "/>
        </symbol>
    </defs>
</svg>
